<?xml version="1.0" encoding="utf-8"?>
<!-- Generator: Adobe Illustrator 19.0.0, SVG Export Plug-In . SVG Version: 6.00 Build 0)  -->
<!DOCTYPE svg PUBLIC "-//W3C//DTD SVG 1.1//EN" "http://www.w3.org/Graphics/SVG/1.1/DTD/svg11.dtd">
<svg version="1.1" id="Layer_1" xmlns="http://www.w3.org/2000/svg" xmlns:xlink="http://www.w3.org/1999/xlink" x="0px" y="0px"
	 viewBox="0 0 360 360" style="enable-background:new 0 0 360 360;" xml:space="preserve">
<style type="text/css">
	.st0{fill:#FFFFFF;}
</style>
<path class="st0" d="M291.6,212.2c-3.3-0.6-6.3-0.1-8.7,2.6c-1.2,1.3-2.6,2.1-4.6,1.7c-1.4-0.3-2.8,0-4.1,1
	c-0.8,0.6-1.8,0.8-2.7,1.1c-1.5-0.9-1.3-2.3-1.3-3.7c0.4-0.1,0.8-0.4,1.1-0.4c0.6,0,1.1,0.4,1.7,0.5c0.4,0.1,0.8,0,1.2-0.1
	c-0.6-0.9-1-1.7-1.6-2.8c1.2-0.3,2.1-0.5,3.3-0.8c-0.6-0.9-1-1.6-1.4-2.3c0.1-0.3,0.2-0.6,0.4-0.7c0.8-0.3,1.7-0.4,2.4-0.9
	c0.5-0.3,0.6-1.1,1-1.9c-1.5-0.7-2.8-1.4-4.1-1.7c-1.1-0.3-2.4,1.1-3.6-0.3c0.8-1.7,1.5-3.6,2.4-5.3c0.2-0.3,1.1-0.6,1.4-0.5
	c0.4,0.2,0.8,0.9,0.8,1.3c0,0.7-0.4,1.3-0.7,1.9c1,1.4,2,2.2,3.8,1.9c0.3-1.2-0.9-0.8-1.3-1.2s-0.8-0.7-1.2-1.2
	c0.7-0.8,1.3-1.4,1.9-2.1c-0.3-0.5-0.4-1.2-0.8-1.5c-1.8-1.1-2.5-2.7-2.2-5.3c-1.6,1.3-2.9,2.8-4.8,1.2c0.5-1.3,1.1-2.5,1.5-3.9
	c0.6-1.6,0.2-2.7-1.3-3s-2.3-1-2.8-2.3c-0.1-0.4-0.5-0.8-0.6-1.2c-0.8-3.5-3.9-4.5-6.6-5.8c-0.6-0.3-1.4,0-2,0
	c-0.2-0.5-0.5-0.9-0.5-1.4c-0.1-1.8,0.4-2.5,2.2-2.4c1.2,0.1,2-0.3,2.8-0.9c0.3-0.2,0.3-0.7,0.6-1.5c-0.9,0.2-1.5,0.6-2,0.5
	c-0.4,0-1.2-0.7-1.1-0.9c0.4-1.2,1-2.4-0.3-3.5c0.4-0.3,0.8-0.7,1.3-1c1.1,2,3.3,1.5,5.1,2c0,0.9,0,1.8,0,2.7c0.6,0.5,1.4,1,2,1.6
	c0.4,0.4,0.8,1,0.7,1.5c-0.7,3.2,1.7,4.2,4,5.6c0,0.7,0,1.5,0,2.4c0,0.4,0.2,1.1,0.5,1.2c2.2,0.5,1.8,3.2,3.5,4.2
	c0.6,0.4,1,1.5,1,2.3c-0.1,1.5,0.7,2.8,1.4,3.5c1.5,1.4,2.2,3.2,3.5,4.7c0.3,0.3,0.6,0.7,0.7,1.1c0.7,2,2.3,5.3,3.2,6
	c0.3,0.2,1,0.4,1.2,0.2c0.4-0.3,0.8-1,0.7-1.3c-0.4-1.1-0.9-2.2-1.5-3.1c-4.3-7.1-8.8-14.1-12.9-21.3c-2.3-4-4-8.4-6-12.6
	c-1.3-2.8-2.3-5.6-4.1-8.2c-1.9,0-3,1.1-4.2,2.2c-5.5,4.8-10.9,9.7-16.4,14.4c-4.5,3.8-7.9,8.6-11.2,13.3c-2.7,3.8-5.4,7.5-8.7,10.9
	c-3.1,3.2-5.7,7-8.6,10.4c-1,1.2-2.2,2.2-3.5,3.2c-0.6,0.5-1.4,0.4-2-0.2c-0.6-0.6-0.7-1.3-0.3-2c1.7-2.6,3.4-5.1,5.1-7.6
	c2.9-4.2,5.9-8.3,8.8-12.4c5.6-8,12.1-15.3,19.2-22c0.6-0.6,1.3-1.2,1.8-1.9c0.3-0.3,0.4-0.7,0.8-1.4c-1.3-2.1-2.5-4.4-4-6.5
	c-2.4-3.2-3.7-6.9-5.6-10.3c-2.7-5-4.5-10.4-7.3-15.3c-0.7-1.1-1.2-2.3-2-3.4c-0.9-1.2-1.5-2.4-1.5-4c0-1-0.5-2-0.7-2.9
	c-0.4-1.4-0.9-2.8-1.1-4.2c-0.2-2.4-1.7-4.1-2.2-6.3c-0.4,0.2-0.7,0.2-0.7,0.3c-1.2,3.5-3.5,6.3-5.5,9.3c-1.4,2-2.7,4.2-3.7,6.4
	c-3.4,7.6-7.3,14.9-11.5,22c-2.5,4.3-5.5,8.2-8.4,12.2c-1.8,2.5-4.2,4.5-5.7,7.2c-2.5,4.5-6.4,7.9-9,12.3c-2.6,4.2-5.8,8-8.6,11.8
	c0,0.4-0.1,0.5,0,0.6c2.1,4,4.1,8,6.4,11.9c2.6,4.4,5.6,8.5,8.4,12.8c0.2,0.2,0.3,0.5,0.3,0.8c0,0.4-0.1,1-0.3,1.2
	c-0.4,0.2-1.1,0.3-1.5,0.1c-0.5-0.2-1-0.7-1.3-1.1c-1.7-2.5-3.4-5-5.1-7.6c-0.3-0.5-0.5-1.1-0.8-1.5c-4.2-5-6.3-11.1-9.6-16.6
	c-2.1-3.4-3.3-7.4-4.9-11.2c-0.4-1-0.9-2.1-1.3-3.3c-0.6,0.4-1,0.5-1.2,0.8c-1.6,2.4-3.1,4.9-4.8,7.3c-1.5,2.2-2.9,4.3-4.6,6.4
	c-9.5,11.6-20.8,21.2-33,29.8c-4.6,3.3-9.5,6.3-14.5,9.5c0.4,1.7,1.6,3.1,2.6,4.7c2.6,4.2,5.3,8.4,7.9,12.6c0.3,0.5,0.5,1.1,0.6,1.6
	c0,0.4-0.1,0.9-0.4,1.1c-0.3,0.2-1,0.3-1.2,0.1c-1.3-1.3-2.7-2.7-3.8-4.2c-1.2-1.6-2.3-3.4-3.2-5.2c-2-3.9-4.5-7.5-7-11.1
	c-2.1-3-3.7-6.3-5.5-9.4c-0.5-0.9-1.2-1.6-1.9-2.4c-0.1-0.1-0.6-0.1-0.8,0c-0.2,0.1-0.4,0.5-0.4,0.7c0.1,0.6,0.2,1.3,0.5,1.6
	c1.6,1.5,1.2,3.8,2.5,5.4c1.2,1.4,2,3.1,2.9,4.7c0.4,0.7,0.9,1.6,0.9,2.4c0,1.2,0.5,1.9,1.5,2.4c1.3,0.7,1.9,1.9,2.1,3.2
	s0.7,2.1,1.7,2.7c0.8,0.5,0.6,1.3,0,1.8c-0.7,0.5-1.4,0.4-2-0.1c-0.8-0.8-1.7-1.6-2.4-2.5c-0.5-0.7-0.7-1.7-1.1-2.6
	c-1.2,0.7,0.1,1.3-0.3,2.1c-1.7,0.7-2.3-1-3.5-1.9c-0.4,0.2-0.9,0.4-1.5,0.5c-0.8,0.1-1.5-0.4-1.7-1.1c-0.1-0.5,0.1-1.2,0.4-1.6
	c0.4-0.5,1.1-0.9,1.8-1.4c-0.7-0.1-1.3-0.2-1.8-0.3c-0.9-0.1-1.9-0.5-1.7-1.5c0.1-0.6,0.8-1,1.3-1.6c-2.2-1.9-2.4-1.8-5.5,1.7
	c-0.3-0.1-0.6-0.1-0.8-0.3c-0.3-0.6-0.6-1.3-0.8-1.9c0.7-0.8,1.2-1.4,1.9-2.2c-0.9-1-1.7-2.2-2.7-2.9s-2.3-0.9-3.5-1.4
	c0.1-0.4,0.1-0.9,0.4-1.1c2.4-1.9,4.5-4,5.8-6.8c0.6-1.3,1.6-1.5,2.9-0.9c0.5,0.2,1,0.6,1.5,0.9c0.4,0.2,0.8,0.2,1.2,0.3
	c0.1-2.1,0.1-2.1-2.7-5.7c-3.3,3.1-6.5,6.2-9.8,9.3c-2.5,2.3-5.1,4.4-7.6,6.5c-0.6,0.5-1.2,0.9-1.7,1.4c-3.4,3.4-7.5,6-11.4,8.8
	c-1.2,0.8-2.2,1.8-3.3,2.8c-4,3.6-8.2,7-12.7,10c-4.6,3.1-9,6.4-13.4,9.7c-1.2,0.8-2.3,1.7-3.5,2.6c-1.5-0.6-2.8-1.1-4.3-1.8
	c0.5-1.7,1.8-2.3,3.1-3c5.1-2.6,9.8-5.8,14.1-9.5c3.4-2.9,6.7-6,10.1-9c2.3-2,4.8-3.8,7.1-5.7c0.6-0.5,1.2-0.9,1.6-1.4
	c2-2.7,4.7-4.7,7.3-6.9c4.4-3.8,8.8-7.6,13-11.6c2.3-2.2,4.2-4.9,6.2-7.3c1-1.2,2-2.5,3.1-3.7c0.5-0.5,1.2-0.7,1.9-1
	c2.4,2.2,4.1,4.7,5.6,7.3c2.5,4.4,5.1,8.8,7.7,13.2c0.1,0.2,0.5,0.3,0.9,0.6c1.7,0,3.2-0.9,4.6-1.9c4.2-2.9,8.4-5.7,12.5-8.9
	c8.4-6.5,16.4-13.6,24.2-20.8c2.6-2.4,5-4.9,7.2-7.6c2-2.5,3.6-5.2,4.7-8.2c1.1-3,2.9-5.7,4.8-8.3c1.1-1.6,2.8-1.4,3.8,0.3
	c0.9,1.5,1.8,2.9,2.7,4.3c1-0.1,1.6-0.4,1.4-1.3c-0.1-1-0.2-2-0.2-3c-0.6-0.6-2.1-0.3-1.8-2c0.1-0.5-1-1.3-1.6-1.8
	c-0.5-0.5-1.2-0.8-1.8-1.2c-1.7-1.1-1.7-1.2-0.4-3.5l-0.1,0.2c1.2,0.7,2.4,1.4,3.6,2c0.2,0.1,0.5,0.1,0.8,0.1c0.2-0.5,0.5-1,0.7-1.5
	s0.9-0.8,0.3-1.8c-0.2-0.1-0.6-0.4-1.1-0.7l0.1,0.2c0-0.7,0.4-1.6-0.6-1.7c-1.2-0.1-1.8-0.6-2.3-1.7c-0.5-1.2-1.4-2.2-2-3.4
	c-0.5-1-0.1-1.7,0.9-2.1c1.6,0.8,0.4,4.1,3.4,3.8c0.4-1-0.5-1.7-0.8-2.6c-0.3-0.8-0.7-1.6-1.1-2.3c-0.7-0.3-1.4-0.6-2.2-0.9
	c0.1-0.5,0.1-1.1,0.3-1.9c-0.9-0.7-2-1.6-3.2-2.5c0.1-1.2,0.2-2.3,0.4-3.7c1-0.4,2.1-0.9,3.3-1.4c-0.3-0.7-0.6-1.2-0.7-1.7
	c0-0.3,0.3-0.9,0.6-1s1.1,0.2,1.1,0.4c0.3,2.6,2.6,4.5,2.5,7.2c0,0.6,0.2,1.2,0.4,1.7c1.2,3.4,2.5,6.8,3.8,10.1
	c0.3,0.8,0.8,1.6,1.2,2.3c0.4,0.8,1.1,1.4,1.3,2.3c0.6,2.1,1.5,3.9,3.3,5.4c0.8,0.6,1.4,1.5,1.1,2.7c-0.7,2.6-0.6,5.5-3.3,7.2
	c-0.4,0.3-0.5,1-0.8,1.5c-0.8,1.2-1.8,0.9-2.4-0.6c-0.1-0.3-0.2-0.5-0.3-0.9c-0.8,0-1.6,0-2.4,0c-0.1,0.3-0.4,0.6-0.3,0.8
	c0.5,2,1.1,3.9,1.7,5.9c0.2,0.5,0.6,1,1,1.6c2.3-0.8,3.7-2.7,4.4-4.6c0.9-2.4,2.6-4.2,4.1-6.1c0.6-0.8,1.2-1.6,1.8-2.5
	c-3.2-6.6-6.4-13.1-9.5-19.7c-3-6.6-5.2-13.5-8.8-20.4c-1.4,2.1-2.5,3.9-3.7,5.8c-0.4,0.6-0.7,1.3-1,1.9
	c-2.9,5.4-6.5,10.4-10.1,15.3c-1.4,1.9-2.6,3.8-4,5.7c-4.3,5.7-8.6,11.3-13.1,16.9c-3.4,4.3-7,8.6-10.6,12.8
	c-1.2,1.4-2.7,2.7-4.2,3.7c-1,0.7-2,0.4-2.3-1c3.1-3.3,6.1-6.6,9.3-10c-2.7-4.8-4.4-9.9-7.6-14.2c-0.4,0-0.8-0.1-1,0
	c-3.3,2.3-6.9,4.5-9.9,7.1c-2,1.7-4.2,3.2-6.2,4.8c-4.9,4-9.8,7.9-14.5,11.9c-2.4,2-5,3.5-7.7,4.9c-3.6,1.9-7.3,3.7-10.5,6.3
	c-0.2,0.2-0.5,0.1-0.9,0.2c-1.1-1.1-0.6-2.2,0.2-3c1.7-1.6,3.5-3.1,5.3-4.5c1.9-1.6,3.9-3,5.8-4.6c3.7-2.9,7.3-5.8,10.9-8.7
	c0.3-0.3,0.8-0.5,1.1-0.8c3.7-3.9,8.6-6.5,12.8-9.8c4.7-3.7,9.7-7,13.7-11.4c0.2-0.2,0.4-0.4,0.6-0.6c1.2-1,2.4-0.9,3.4,0.5
	c0.6,0.9,1.2,2,1.6,3.1c1,2.6,2.2,5,3.8,7.5c0.6-0.3,1.1-0.5,1.5-0.9c3.8-3.8,7.5-7.7,10.7-12.1c2.2-3,4.7-5.9,7.1-8.8
	c0.6-0.8,1.4-1.5,2-2.3c3-4.6,5.9-9.4,9-13.9c2.1-3.1,3.7-6.5,5.9-9.5c1-1.4,2.1-2.7,3.5-3.7c1.1,0.1,1.5,0.7,1.6,1.7
	s0.2,2.1,0.6,2.9c2,3.8,3.3,7.7,4.5,11.8c0.4,1.3,0.8,2.5,1.4,3.6c2.1,3.4,3.5,7,4.8,10.7c0,0.1,0.1,0.3,0.2,0.4
	c2.6,4.8,5.3,9.6,7.8,14.2c1.7,0.2,2.3-0.9,2.6-1.7c2-4.4,5.3-8,8.1-11.8c3-4,5.3-8.3,7.7-12.7c2.4-4.5,4.5-9.2,7.4-13.3
	c4.2-6,7-12.8,11.5-18.5c0.9-1.1,1.5-2.6,3.2-2.9c1.4,0.3,2.1,1.4,2.7,2.6c2.5,5.6,4.9,11.2,7.4,16.7c2.1,4.6,4.3,9.2,6.4,13.8
	c1.5,0.3,2.2-0.8,3-1.6c3.5-4.1,7-8.2,10.4-12.4c5.2-6.3,9-13.5,12.6-20.8c0.5-1,1.1-2,1.6-3.1c1.2-2.7,3.4-3.8,6.6-3.6
	c0.9,1.6,1.9,3.2,2.6,4.9c4.3,9.4,9.3,18.5,14.7,27.3c2.1,3.5,3.6,7.3,5.2,11c2.6,5.7,4.8,11.5,8.2,16.9c2.6,4.2,5.1,8.5,8.2,12.4
	c3.1,3.8,5.8,8,8.7,12c0.9,1.2,1.1,2.3,0.1,3.8c-0.6-0.3-1.3-0.4-1.8-0.8c-1.6-1.5-3.1-3.1-4.6-4.7c-0.5-0.5-0.9-1.2-1.4-1.7
	c-7.3-8-13.2-17-18.7-26.3c-2.7-4.6-5-9.5-7.3-14.4c-2.5-5.2-5-10.5-7.4-15.8c-1.3-2.9-2.6-5.8-3.9-8.7c-0.4-0.8-0.9-1.6-1-2.4
	c-0.2-2.6-1.7-4.6-3.3-6.6c-0.9,0.2-0.6,1.1-1,1.6c-0.3,0.5-0.6,1-0.8,1.5c-1.9,4.1-4.1,8-6.4,11.9c-1.6,2.6-3.3,5.1-5,7.6
	c-3.6,5.1-7.2,10.3-10.9,15.3c-2,2.7-4.1,5.2-7.3,7.1c1.1,2.8,2.1,5.6,3.7,8.2c1.6,2.6,3.2,5.1,4.8,7.8c2.6-1.4,4.4-3.3,6.3-5
	c2.8-2.6,5.6-5.1,8.5-7.5c0.9-0.7,2-1.3,3-1.7c0.9-0.4,1.7,0.1,1.9,1.1c0.1,0.5,0,1.2,0.2,1.7c2.5,5.1,5.1,10.2,7.5,15.3
	c1.5,3,2.9,6,4.2,9.1c3.4,8.3,8.3,15.6,13.6,22.8c1.5,2,2.8,4.1,4.2,6.1c0.4,0.6,0.9,1.1,1.4,1.8c5.2-3.6,8.6-9.3,14.9-11.3
	c2.7,2.5,5.8,4.7,8,7.8c0.5,0.7,1.4,1.1,2,1.6c2.7,2.3,5.4,4.4,7.9,6.8c3,2.8,6.5,4.9,9.9,7.1c1.1,0.7,2.3,1.4,2.7,2.7
	c0.1,0.2,0.1,0.7-0.1,0.8c-0.3,0.3-0.8,0.6-1.1,0.5c-2-0.8-4.1-1.6-6-2.7c-7.7-4.4-15.4-8.8-22.5-14.2c-0.5-0.3-1-0.6-1.7-0.9
	c-1.9,1.6-3.8,3.1-5.6,4.8c-4.1,3.8-8.6,7-13.3,9.9c-5.3,3.3-10.5,6.8-16.3,9.3c-1.2,0.5-2.1,1.4-3.4,2.2c-0.6-0.4-1.1-0.9-1.7-1.3
	c0.6-2,1.6-3.5,2.9-4.9c3.2-3.3,7.3-5.3,10.7-8.3c1.4-1.2,3-2.3,4.5-3.4C290.2,212.6,290.9,212.4,291.6,212.2c0.5-1,1.2-1.9,2-2.9
	c-1.7-0.9-2.4-3.1-5-2.4C289.7,208.8,290.6,210.5,291.6,212.2z M265.3,176c0.1-0.3,0.3-0.6,0.3-0.9c0-0.3-0.1-0.6-0.2-0.8
	c-0.3-0.9-1-1.1-1.5-0.3c-0.4,0.5-0.6,1.2-1,2C263.9,176,264.6,176,265.3,176z M157.5,143.6c0.4-0.5,0.8-0.9,1.1-1.3
	c-0.2-0.2-0.4-0.5-0.6-0.5c-0.5,0.1-0.9,0.3-1.4,0.5C156.9,142.7,157.1,143,157.5,143.6z M81.7,226.6c-0.1-0.1-0.2-0.2-0.2-0.3
	c-0.1,0.1-0.2,0.2-0.3,0.3c0.1,0.1,0.3,0.3,0.4,0.4C81.6,226.8,81.7,226.7,81.7,226.6z"/>
<path id="XMLID_163_" class="st0" d="M259.6,238c-0.9-2-2.8-2.8-4.2-4.2c-1.7-1.6-3.5-3.1-5.2-4.6c-0.5-0.5-1-1-1.6-1.4
	c-3.7-2.4-6.5-5.8-9.4-9.1c-0.8-0.9-1.6-1.7-2.4-2.5c-0.4-0.4-1-0.6-1.6-1c-1.2,1-2.6,2-3.7,3.1c-3.6,3.6-7.3,7.1-10.8,10.8
	c-6.1,6.5-12.4,12.6-18.8,18.8c-2,1.9-4.3,3.4-6.7,4.9c-5.2,3.3-10.4,6.4-15.6,9.6c-0.7,0.4-1.6,0.8-2.4,1.1
	c-1.1,0.4-1.6-0.3-2.1-1.3c-1.1,0.7-2.2,1.3-3.4,1.9c-1,0.5-2.1,1-3.2,1.4c-1,0.4-2.2,0-2.2-0.7c0-1,0.5-1.7,1.4-2
	c3.3-1,6-3,8.7-4.9c0.8-0.6,1.7-1.1,2.6-1.5c5.9-2.6,10.9-6.7,15.8-10.8c2.7-2.2,5.4-4.4,8.1-6.6c0.7-0.6,1.4-1.1,2-1.7
	c4.3-4.5,8.6-9.1,13-13.5c4.7-4.7,9.6-9.4,14.4-14c0.9-0.9,2.1-1.5,3.1-2.2c1.7,0.8,3.2,1.3,4.5,2.1c1,0.6,1.8,1.4,2.6,2.2
	c4.5,4.9,8.7,10.2,13.5,14.8c8.4,7.9,16.8,15.7,26.5,21.9c0.1,0.1,0.3,0.1,0.4,0.2c0.8,0.6,1.7,1.2,1.6,2.4c-0.1,1-1.6,1.7-3.2,1.5
	c-0.8-0.1-1.8-0.4-2.3-1c-3.5-4.3-7.8-7.2-12.7-9.6c-1.3-0.6-2.3-1.7-3.5-2.6c-1-0.8-2-1.8-3.5-1.5C259.4,237.8,259.6,238,259.6,238
	z"/>
<path class="st0" d="M272.3,119.4c-1.1,1.1-1.7,2.7-3.5,2.9c-1.5-0.9,0.7-2-0.4-3.1c-0.7-0.6-0.8-1.8-1.3-3c0.9-0.3,1.6-0.8,2.4-0.9
	s1.6,0.1,3.3,0.2c-1.7-1.5-3.3-1.9-3.5-3.5c-0.1-0.5,0-1.2,0.3-1.5s1.2-0.3,1.5-0.1c0.8,0.6,1.8,1.3,2.1,2.1c0.8,2.1,2.6,4,1.3,6.5
	c-0.1,0.3,0,1,0.3,1.2c1.8,1.4,2.2,3.3,1.9,5.3c2.7,2.2,4.5,4.4,3.3,7.9c-0.2,0.7,0.3,1.6,0.5,2.4c0.6,0,1.1-0.1,1.5,0
	c0.3,0.1,0.6,0.5,0.9,0.7c-0.3,0.3-0.5,0.6-0.8,0.8c-0.2,0.2-0.4,0.4-0.7,0.8c0.8,1.5,1.5,3.2,3.6,4.8c-0.5-1.4-0.8-2.1-0.9-2.9
	c0-0.3,0.3-0.8,0.7-0.9c0.3-0.1,1.1,0.1,1.1,0.3c0.5,1.9,2.3,3.6,1.5,5.7c-0.8,2.1,0,3.3,1.7,4.3c0.4,0.2,0.7,0.5,0.9,0.6
	c0,1.6,0,2.9,0,4.3c1,0,1.8,0,2.7,0c0.3,0.5,0.5,1.1,0.9,1.5c1.3,1,0.1,2.6,0.8,3.7c0.7,1.1,1.7,2,2.4,3c0.7,1.1,1.2,2.3,1.7,3.4
	c-0.3,0.7-0.8,1-1.3,0.5c-1.2-1.1-2.5-2.2-3.2-3.5c-1.5-2.6-4-2.8-6.4-2.8c-1.2,0-2.5,0.8-2.8,2.3c-0.1,0.6-0.4,1.1-1.3,0.7
	c-0.9-1.4,0.8-2.6,0.6-4.3c-0.7-0.4-1.5-0.8-2.3-1.2c0.6-1.5,1.1-2.8,1.6-4.3c-1.1-0.5-2-0.8-3-1.2c-0.5,0.7-0.9,1.2-1.3,1.8
	c-0.9-0.1-1.6-0.7-1.2-1.4c1.1-2,0.3-3.9,0.1-5.9l-0.2,0.1c0.4-0.1,0.8-0.2,1.5-0.3c-0.1-0.9-0.3-1.7-0.3-2.6c0-0.8,0.1-1.7,0.2-2.6
	c-0.7-0.4-1.4-0.8-2.3-1.3c0.2-0.7,0.4-1.4,0.6-2.2c-0.4-0.1-0.8-0.3-1.1-0.3c-2.2,0.3-2.7,0.2-3.5-1.4c-0.1-0.3,0-0.9,0.2-1.1
	c0.2-0.2,0.8-0.3,1.1-0.2c0.4,0.1,0.7,0.5,1,0.8c0.7,0.5,1.5,0.5,1.9-0.2c0.3-0.5,0.4-1.7,0.1-1.9c-1.8-1.3-1.8-3.2-1.8-5.3
	c-1.2-0.6-2.3-1.2-3.7-2c0.1-1.1-0.2-2.5,0.3-3.6C272.7,121.4,272.3,120.4,272.3,119.4c-0.2,0-0.4,0.1-0.6,0.2
	c0-0.1-0.1-0.2-0.1-0.4C271.8,119.3,272.1,119.3,272.3,119.4z M284.7,144.8v-0.3l-0.3,0.1L284.7,144.8z"/>
<path class="st0" d="M221.1,135.5c0.9-1,1.7-0.8,2.6-0.5c0.5,0.2,1,0.4,1.6,0.4c2.3-0.1,2.4-0.1,2.6,1.9c0.3,2.4,1.1,4.7,2.6,6.7
	c2,2.5,2.8,5.6,4.5,8.3c0.8,1.3,1.1,3,2.8,3.7c0.3,0.1,0.7,0.7,0.7,1c-0.1,1.3,0.7,2.1,1.3,3.1c0.7,1.3,0.9,3,1.4,4.5
	c-2.4,2.2-4.6,4.3-6.9,6.4c-0.3,0.3-0.9,0.5-0.9,0.9c-0.2,2.2-1.8,3-3.5,4c-1,0.6-2,1.7-2.2,3.1c-0.1,0.6-0.7,1.2-1.3,2
	c-1.4-0.5-2.7-1-3.8-1.4c-0.1-1.2,0.6-1.1,1.1-1.3c3-1,4.7-4,3.7-6.7c-0.2-0.6-0.6-1.3-1.2-1.7c-1-0.8-2.1-1.5-3.2-2.2
	c-0.2-1.2,1-1.2,1.6-1.7c-0.1-0.6-0.2-1.1-0.3-1.7c0.2-0.2,0.5-0.5,0.7-0.5c1.5,0,3,0.1,3.9-1.5c-0.8-1.7-1.6-3.4-2.5-5.4
	c1.1-0.1,1.8-0.3,2.5-0.3c1.2,0.1,1.3,0.2,1.2,2.2c0,0.2,0.3,0.3,0.5,0.5c0.1,0.1,0.3,0,0.7,0c0.5-1.9,0.7-3.8-1-5.2
	c-1.5,0.4-2.8,0.7-4.4,1.1c-1.2-1.2-1.5-2.7-2-4.2c0.5-0.3,0.8-0.5,1.3-0.9c0.5,0.9,1,1.8,1.4,2.7c2.3-0.4,3-1.9,2.7-4.3
	c-1.1-0.3-2.3-0.6-3.6-0.9c0.1-0.6,0-1.2,0.2-1.4c1.3-0.9,1.3-2.2,1.3-3.5c-0.1-1.3-1.1-2-2-2.7c-1.4,1,0.5,3.6-2.3,4
	c-0.2-1.1-0.5-2.1-0.5-3C222.3,139,222.3,137,221.1,135.5z M231.2,162.9c-0.7,0.6-1.1,1.1-1.7,1.4c-0.6,0.3-1.2,0.3-2.1,0.5
	c0.3,1.1,0.4,2,0.8,2.7c0.5,0.9-0.8,1.9,0.4,2.6c1.4-0.8,2-2,2.2-3.5C232.8,165.7,231.6,164.3,231.2,162.9z"/>
<path id="XMLID_158_" class="st0" d="M233,230.8c-1.5,0.3-1.5,0.3-3.4-0.5c-0.1-0.5-0.1-1.2-0.2-1.9c-0.1-0.5-0.1-1.1-0.3-1.9
	c0.8,0.2,1.4,0.3,1.9,0.4c0.5,0.2,1,0.4,1.5,0.6c0.7-0.8,1.2-1.4,1.9-2.2c-0.6-0.6-1.3-1.2-2-1.9c1.2-0.9,2.2-1.7,3.2-2.6
	c0.7,0.2,1.4,0.5,2.1,0.6c1.8,0.2,2.9,1.1,3.6,2.7c0.5,1.4,1.6,2.3,2.8,3.2c2.4,1.8,4.5,4,6.9,5.9c2.6,2,5.2,4.1,8.7,4.7l-0.2-0.2
	c0.2,1.3,0.9,2.3,2,3.1c2,1.4,3.9,3,5.9,4.5c0.6,0.4,1.1,0.9,1.5,1.5c0.1,0.2,0.2,0.7,0,0.8c-0.3,0.3-0.7,0.6-1,0.6
	c-0.8-0.2-1.6-0.7-2.4-1s-1.8-1-2.4-0.7c-2.2,0.8-4,0-5.8-0.7c-1.9-0.8-3.4,0-4.9,1c-1.1-0.7-2.2-1.2-3-1.9
	c-0.3-0.3-0.3-0.9-0.5-1.4c0.5-0.1,1.2-0.5,1.6-0.3c0.9,0.3,1.8,0.9,2.6,1.4c1.6-1.7,1.6-2.1,0.2-3c-1.2-0.9-2.6-1.3-4.1-1.1
	c-1.1,0.2-2.3,0.3-3.6,0.5c-1.1-1-1.7-3-3.9-2.4l0.1,0.1c-0.8-2.9-3.5-3.9-5.6-5.3c-0.6-0.4-1.8-0.1-2.9-0.1
	C233.2,232.4,233.1,231.6,233,230.8c1.2-0.1,2.7,1.9,3.9-0.3c-1.5-1.4-1.5-1.4-2.7-0.7C233.8,230,233.5,230.4,233,230.8z"/>
<path class="st0" d="M163.7,207.7c-1.6-1.2-3.2-2.3-5.3-3.9c0.1,0.2-0.1-0.2-0.2-0.6c-0.1-0.8-0.4-1.5-1.3-1.5c-1,0-0.9,0.8-0.9,1.5
	c0,1.2-0.7,1.9-1.8,1.8c-1-0.1-1.9-0.5-2.9-0.8c0-2.2,0-4.3,0-6.3c1.2,0.6,2.3,1.1,3.3,1.6c2.3-1,2.3-1,4.8-0.9
	c-0.3-1.4-1.3-1.7-2.5-1.9c-2-0.2-4-0.5-5.6,1.2c-0.3-0.1-0.7-0.3-1-0.4c0.3-0.6,0.4-1.5,0.9-1.9c1-0.8,1.5-1.6,1.9-2.8
	c0.5-1.5,0.6-1.5,2.6-2.9c-0.3-1.7-0.7-3.5-0.3-5.2c1.2-0.6,2-0.5,2.2,0.6c0.3,1.7,0.3,3.4,1.8,4.7c0.5,0.4,0.6,1.3,0.7,2
	c0.2,2,0.9,3.6,2.4,5c0.4,0.4,0.8,0.9,0.9,1.5c0.6,3.2,2.6,5.7,4.6,8.2c0.9,1.1,1.5,2.5,2.1,3.8c0.6,1.4,1.1,2.9,2.9,3.4
	c0.8,0.2,0.8,1.2,0.4,1.9c-0.5,0.7-1.4,0.9-1.9,0.3c-1.2-1.4-3.1-2.1-3.9-3.9c-0.4-1-1.2-1-2.1-1.2c-1.7-0.3-1.8-0.9-0.7-2.3
	c0.2-0.3,0.5-0.7,0.7-1C164.9,207.1,164.3,207.1,163.7,207.7L163.7,207.7z M153.8,202.4c-0.1-0.2-0.2-0.5-0.3-0.6s-0.5,0.1-0.6,0.3
	s0.1,0.4,0.2,0.7C153.4,202.6,153.6,202.5,153.8,202.4z"/>
<path class="st0" d="M306.8,214.4c-0.2-2.2,1.4-3.6,2.8-4.5c1.2-0.8,3-0.8,4.6-0.8c0.6,0,1.4,0.5,1.9,0.9c2.5,2.4,5.3,4.5,8.5,5.9
	c1.6,0.7,1.7,1.1,3.7,4.7c-1.1,1.3-2.5-0.3-3.9,0.5c-0.4,1.1-1.4,2.2-0.6,3.8c0.4,0.7,0,1.2-0.6,1.2c-0.5,0-1.4-0.4-1.4-0.7
	c-0.2-1.6-0.3-3.1-0.4-4.9c-2.5-1.3-4.4-4.6-8.6-2.4c1.5,0.9,2.7,1.6,4.2,2.5c-0.6,0.5-1.2,0.8-1.5,1.3c-0.3,0.6-0.1,1.3-0.2,2.1
	c-2.6-1.8-3.9-4.2-4.6-8.2C309.7,214.3,308.1,214.6,306.8,214.4L306.8,214.4z M314.1,213.9c-0.3-0.1-0.4-0.1-0.6-0.1
	c0,0.1,0.1,0.2,0.1,0.2C313.8,214,313.9,214,314.1,213.9z"/>
<path class="st0" d="M108.3,170.9c2.9-0.3,3.2,2.2,5.1,2.8c0.1,1.9-0.3,4,1,5.8c0.4,0.6,0.4,1.8,0,2.4c-1,1.6-2.1,3.2-3.5,4.3
	c-1.3,1.1-3.2,1.3-4.2,2.8c-0.1,0.1-0.9,0-1.2-0.2c-0.3-0.2-0.6-0.8-0.5-1c0.5-1.1,0.9-1.9,0-3.1c-0.5-0.7,0.1-2.1,0.2-3.3
	c-1.2,0.3-2.4,0.4-3.6,0.9c-0.6,0.2-0.9,1.1-1.3,1.6c-0.3,0.4-0.6,1-1.1,1.3c-0.2,0.2-0.8-0.1-1.1-0.2c-0.2-0.1-0.3-0.5-0.2-0.8
	c0-0.3,0.2-0.6,0.4-0.7c1.1-0.9,2.5-1.6,3.2-2.8s1.1-2.3,2.6-2.6C105.4,175.7,108.3,174.2,108.3,170.9z M108.5,180.1
	c0.3,0.2,0.6,0.5,0.9,0.7c0,0,0.3-0.2,0.2-0.3c-0.2-0.3-0.4-0.6-0.5-0.9C109,179.8,108.8,179.9,108.5,180.1z M108.8,183.5
	c-0.2-0.3-0.4-0.6-0.5-0.6c-0.3,0.1-0.6,0.3-0.9,0.5c0.1,0.2,0.3,0.7,0.4,0.7C108.1,183.9,108.4,183.7,108.8,183.5z"/>
<path id="XMLID_150_" class="st0" d="M221.7,128.8c-1.4-2.6-2.5-4.5-3.7-6.7c1-0.7,2-1.4,3-2.1c0.3,1.3,0.3,1.3-0.9,3
	c0.2,0.3,0.4,0.7,0.7,0.9c0.6,0.6,1.4,1,1.9,1.6c0.3,0.4,0.3,1.1,0.2,1.6C222.9,127.7,222.4,128,221.7,128.8z"/>
<path id="XMLID_149_" class="st0" d="M241.7,238.5c0.4,0.7,0.9,1.5,1.4,2.3c-0.5,1-1,2-1.5,3.1c-0.5-0.2-1-0.3-1.2-0.6
	c-1-1.5-0.7-3.7-2.6-4.7c0,0,0.1-0.5,0.3-0.7s0.6-0.3,0.8-0.2c0.4,0.2,0.7,0.5,1,0.8c0.6,0.7,1.3,0.5,1.9,0.1
	C241.8,238.6,241.7,238.5,241.7,238.5z"/>
<path id="XMLID_148_" class="st0" d="M163.6,207.7c-0.9,1.2-1.1,3-2.7,3.7c-0.6,0.3-1.6,0.1-1.8-0.5c-0.1-0.5,0.1-1.1-0.1-1.5
	c-0.3-0.4-0.9-0.6-1.5-0.9C160.1,206.8,160.1,206.8,163.6,207.7C163.7,207.7,163.6,207.7,163.6,207.7z"/>
<path id="XMLID_147_" class="st0" d="M296,224.5c-0.1-0.5-0.3-1.4-0.1-1.4c2-0.8,2.9-2.5,4-4.1c0.2-0.3,0.8-0.5,1.1-0.4
	c0.3,0,0.8,0.7,0.7,0.8C300.6,221.8,299.4,224.3,296,224.5z"/>
<path id="XMLID_146_" class="st0" d="M83.6,239.4c-2.4,0.3-4.4,0.7-6.4,0.8c-1.1,0.1-2.2-0.3-3.3-0.5c-0.1-1.2,0.6-1,1.1-1
	c2.3-0.3,4.5-0.6,6.8-0.7C82.3,237.9,82.8,238.7,83.6,239.4z"/>
<path id="XMLID_145_" class="st0" d="M221.8,157.4c-1.7-1.2-3.2-2.3-4.7-3.4c-0.4-0.3-0.8-0.8-1-1.3c-0.1-0.3,0.2-0.8,0.5-1.1
	c0.1-0.1,0.7-0.1,0.8,0c1.2,1.9,3.2,2.6,4.9,3.9C222.9,156,222.8,156.8,221.8,157.4z"/>
<path id="XMLID_144_" class="st0" d="M158,160.8c-1,0.2-2,0.5-2.9,0.5c-1,0-1.4-0.7-1.2-1.7c2.2-0.4,4.2-0.9,6.3-1.2
	c0.7-0.1,1.5,0.6,2.3,0.9l-0.1-0.2c-0.5,1.1-1.5,1.1-2.5,0.9c-0.9-0.2-1.6,0-2,1L158,160.8z"/>
<path id="XMLID_143_" class="st0" d="M264.4,135.8c0.6-2.9,0.7-3,2.4-3.1c1.6,0,3.2,0.3,4.4,1.5c0.2,0.1,0.2,0.6,0.1,0.8
	s-0.4,0.4-0.6,0.5c-0.1,0.1-0.3,0-0.4,0C267.2,134.6,267.2,134.6,264.4,135.8z"/>
<path id="XMLID_142_" class="st0" d="M222.5,169.6c1.2,1.6,2.2,2.9,3.5,4.7c-2-0.2-3.3-0.4-4.8-0.6
	C220.2,172.1,221.4,171.1,222.5,169.6z"/>
<path id="XMLID_141_" class="st0" d="M335.9,225.4c-2.2-0.2-3.8-0.3-5.3-0.5c-0.8-0.1-1.3-0.4-1.4-1.6c2-0.5,4-0.5,6,0.3
	C335.5,223.8,335.5,224.6,335.9,225.4z"/>
<path id="XMLID_140_" class="st0" d="M305.2,217.8c1.2,0,2.5,0,3.7,0c0.5,1,0,1.5-0.8,1.6c-1,0.1-1.6,0.4-1.5,1.6
	c0,0.2-0.8,0.8-1.2,0.8c-0.8-0.1-1.1-0.6-0.7-1.5C304.9,219.6,305,218.7,305.2,217.8z"/>
<path id="XMLID_139_" class="st0" d="M278.1,146.7c-0.6,0.5-1.2,1.1-2,1.8c-1.1-0.1-2.6-0.2-3.1-2c1.1-0.5,2-0.9,3-1.3
	c1.2-0.4,1.6-0.1,2,1.7C278,146.8,278.1,146.7,278.1,146.7z"/>
<path id="XMLID_138_" class="st0" d="M148.4,208.7c3.2-1.9,4.6-2.1,6-0.9c-1.3,1.1-2.7,1.6-4.2,1.9
	C149.7,209.7,149.1,209.1,148.4,208.7z"/>
<path id="XMLID_137_" class="st0" d="M222,240.6c0.4-0.5,0.5-0.9,0.8-1.1c0.8-0.8,0.2-3.2,2.1-2.4c1.3,0.6-0.3,2.2-0.2,3.4
	C224.8,241.4,223.4,241.6,222,240.6z"/>
<path id="XMLID_136_" class="st0" d="M265.7,130.1c-1-1.2-0.3-2.3,0.1-3.3c0.1-0.4,0.9-0.8,1.3-0.7c0.5,0,1.1,0.5,1.2,0.9
	c0.2,0.4,0.1,1.2-0.2,1.5C267.3,129.1,266.5,129.6,265.7,130.1z"/>
<path id="XMLID_135_" class="st0" d="M259.6,183.7c1.5-0.7,2.2-1.2,2.4-1c1.2,0.7,2.3,1.5,3.4,2.4c0.2,0.1,0.3,0.5,0.3,0.8
	c0,0.4-0.1,0.9-0.4,1.1c-0.3,0.2-1,0.1-1.1-0.1C263.4,185.5,262.1,184.7,259.6,183.7z"/>
<path id="XMLID_134_" class="st0" d="M176.3,204.9c0.5,0.2,1.1,0.3,1.6,0.5c2.1,0.9,3,1.8,2.4,2.4c-0.2,0.2-0.6,0.4-0.7,0.3
	c-1.1-0.5-2.3-1-3.3-1.7c-0.2-0.1,0.1-1,0.1-1.6L176.3,204.9z"/>
<path id="XMLID_133_" class="st0" d="M288.7,164.5c0.2-0.5,0.2-1.3,0.6-1.5c0.7-0.3,1.6-0.4,2.4-0.4c0.3,0,0.7,0.5,0.7,0.9
	c0.1,0.3-0.2,1-0.4,1.1c-0.9,0.3-1.9,0.4-2.8,0.5C289,164.9,288.9,164.7,288.7,164.5z"/>
<path id="XMLID_132_" class="st0" d="M253,169.7c0.3-0.2,0.7-0.6,1.1-0.7c0.3-0.1,0.8,0.3,0.9,0.6c0.2,0.7,0.4,1.4,0.4,2.1
	c0,0.5-0.5,1-0.9,1.3c-0.5,0.4-1.2-0.3-1.3-1.2C253.2,171.2,253.1,170.6,253,169.7z"/>
<path id="XMLID_131_" class="st0" d="M214.9,171.6c0.4,0.6,0.7,0.9,0.7,1.3c-0.1,1.4-0.8,2.4-2,2.9c-0.3,0.1-0.9,0-1.1-0.3
	c-0.2-0.2-0.2-0.8,0-1.1C213.2,173.5,213.9,172.7,214.9,171.6z"/>
<path id="XMLID_130_" class="st0" d="M216.6,129.3c-0.1,3.4-0.2,3.6-2.2,4.4c0.2-1.4,0.3-2.7,0.4-4.1
	C215.5,129.5,216.1,129.5,216.6,129.3L216.6,129.3z"/>
<path id="XMLID_129_" class="st0" d="M265.8,193.4c0.1-1-0.1-2,0.2-2.9c0.1-0.4,1.2-0.8,1.7-0.7c0.8,0.1,1,0.9,0.8,1.7
	c-0.3,1.8-1.7,1.6-3,1.7C265.7,193.3,265.8,193.4,265.8,193.4z"/>
<path id="XMLID_128_" class="st0" d="M288.2,177.7c0.7-1,1.3-2,2.2-3.3c0.6,0.7,1.2,1.2,1.2,1.5c-0.2,1.5-1.4,2.2-2.7,2.5
	C288.7,178.2,288.4,177.9,288.2,177.7z"/>
<path id="XMLID_127_" class="st0" d="M268.3,210c-1.9,0.6-2.8,2-4.5,1.4c0.3-1.7,1.4-2.5,2.8-2.8C266.9,208.6,267.4,209.3,268.3,210
	z"/>
<path id="XMLID_126_" class="st0" d="M76.5,232.1c-0.1,0.1-0.1,0.3-0.2,0.4c-0.5,0.6-1.8,0.4-2.6-0.5c-0.6-0.6-0.6-1.3,0.1-1.8
	c0.2-0.2,0.5-0.4,0.7-0.4C75.5,229.8,76.6,231.1,76.5,232.1z"/>
<path id="XMLID_125_" class="st0" d="M64.3,238.1c1.2-1.2,2.2-1.9,3.5-1.9c0.2,0,0.6,0.2,0.7,0.4c0.1,0.4,0.2,1,0,1.1
	C67.3,238.6,66.1,239.3,64.3,238.1z"/>
<path id="XMLID_124_" class="st0" d="M119.9,228.1c0.8-1.7,2.2-1.7,4.1-1.3C122.8,228.5,121.3,228.1,119.9,228.1z"/>
<path id="XMLID_123_" class="st0" d="M263.3,162.9c0.7,0.4,1.3,0.7,2,1c-0.4,0.8-0.6,1.4-1,2.1c-0.8-0.4-1.4-0.7-2.2-1.1
	C262.6,164.2,262.9,163.6,263.3,162.9z"/>
<path id="XMLID_122_" class="st0" d="M154.1,153.4c1.2,0.1,1.9,0.6,1.6,1.8c-0.1,0.7-1.3,1.1-1.7,0.7
	C153.3,155.1,153.4,154.2,154.1,153.4z"/>
<path id="XMLID_121_" class="st0" d="M176.4,204.8c-0.7-0.5-1.5-0.8-2-1.4c-0.3-0.3-0.3-1.1-0.2-1.6c0-0.2,0.8-0.6,1-0.4
	c0.4,0.2,0.9,0.7,1,1.1c0.2,0.8,0,1.6,0,2.5C176.3,204.9,176.4,204.8,176.4,204.8z"/>
<path id="XMLID_120_" class="st0" d="M272.3,208.2c-0.5,0.3-0.9,0.7-1.1,0.6c-0.7-0.4-1.3-1-1.9-1.5c-0.1-0.1,0.1-0.7,0.2-0.7
	c0.7-0.1,1.4-0.2,2,0.1C271.9,206.8,272,207.6,272.3,208.2z"/>
<path id="XMLID_119_" class="st0" d="M82.3,242.8c1.5-0.6,2-0.9,2.5-1c0.8-0.2,1.7-0.2,2.2,0.7c0.1,0.1,0,0.3,0,0.4
	c-0.5,1.1-1.4,0.7-2.2,0.6C84.3,243.4,83.8,243.2,82.3,242.8z"/>
<path id="XMLID_118_" class="st0" d="M272.9,133.1c-1.3-0.9-2.3-1.5-3.3-2.2c0.2-0.9,0.8-1.1,1.3-0.8c0.8,0.5,1.6,1.1,2.3,1.8
	C273.3,131.9,273.1,132.3,272.9,133.1z"/>
<path id="XMLID_117_" class="st0" d="M268,197.6c0,0.7,0.2,1.4,0,2c-0.1,0.3-1,0.4-1.4,0.4c-0.3,0-0.8-0.6-0.8-0.9
	c0.1-0.5,0.3-1.1,0.7-1.3c0.4-0.2,1.1-0.1,1.7-0.1L268,197.6z"/>
<path id="XMLID_116_" class="st0" d="M257.6,140.9c-0.8,0.7-1.1,1.2-1.6,1.3c-0.8,0.3-1.8-0.4-1.6-0.9c0.2-0.4,0.8-0.8,1.2-0.9
	C256.1,140.4,256.6,140.7,257.6,140.9z"/>
<path id="XMLID_115_" class="st0" d="M207.4,246.9c-0.2,1,0.7,2.2-0.3,3.2c-0.4,0.4-0.5,0.5-1.8,0.1
	C205.3,248.7,207.8,248.7,207.4,246.9L207.4,246.9z"/>
<path id="XMLID_114_" class="st0" d="M136.1,211.3c0.6,0.6,1.3,1,1.3,1.3c-0.1,0.4-0.6,1-1,1.2c-0.6,0.3-1.2-0.2-1.1-0.8
	C135.3,212.5,135.7,212,136.1,211.3z"/>
<path id="XMLID_113_" class="st0" d="M142.6,213.2c-0.4,0.6-0.7,1.2-1.1,1.7c-0.1,0.1-0.7,0.1-0.7,0c-0.1-0.6-0.3-1.3-0.2-1.9
	c0-0.3,0.6-0.6,0.9-0.6C141.8,212.4,142.1,212.8,142.6,213.2z"/>
<path id="XMLID_112_" class="st0" d="M131.9,223.8c0.9-0.6,1.4-1.1,2-1.3c0.2-0.1,0.9,0.2,1,0.5s0,0.9-0.2,1.1
	C134,224.8,133.2,225,131.9,223.8z"/>
<path id="XMLID_111_" class="st0" d="M306.6,178c-0.3,0.4-0.4,0.5-0.5,0.6c-0.8,0.8-1.6,1.2-2.6,0.4c-0.1-0.1-0.2-0.6,0-0.8
	C304.3,177.3,305.2,176.7,306.6,178z"/>
<path id="XMLID_110_" class="st0" d="M255.2,197.9c0.7-0.3,1.2-0.7,1.6-0.6c0.4,0.1,0.7,0.7,1,1c-0.5,0.2-0.9,0.5-1.4,0.6
	C256.2,198.8,255.9,198.4,255.2,197.9z"/>
<path id="XMLID_109_" class="st0" d="M154.8,151.9c-0.5-0.8-0.9-1.3-1-1.8c-0.1-0.3,0.1-0.9,0.4-1.1c0.3-0.2,0.9-0.2,1.2,0
	s0.7,0.7,0.6,1C155.8,150.6,155.3,151.1,154.8,151.9z"/>
<path id="XMLID_108_" class="st0" d="M218.3,243.4c-0.9,1.6-2.4,1.6-3.6,2.1c-0.5-0.6-0.7-1.3,0-1.4
	C215.8,243.9,216.8,242.6,218.3,243.4z"/>
<path id="XMLID_107_" class="st0" d="M145.2,202.5c0.4-0.5,0.7-1.1,1.1-1.2c0.4-0.2,1,0,1.5,0.1c0.1,0,0.2,0.6,0.1,0.7
	c-0.5,0.4-1,0.9-1.6,1.1C146.2,203.3,145.7,202.9,145.2,202.5z"/>
<path id="XMLID_106_" class="st0" d="M94,185.3c2.1,0.7,2.5,1.8,2.6,3.3C95.1,187.6,95.1,187.6,94,185.3z"/>
<path id="XMLID_105_" class="st0" d="M130.7,182c0.1,1-0.5,1.5-1.2,1.6c-0.3,0.1-0.9-0.3-0.9-0.6c-0.2-0.9,0.5-1.2,1.2-1.4
	C130,181.6,130.4,181.9,130.7,182z"/>
<path id="XMLID_104_" class="st0" d="M58.7,244c-0.9,0.4-1.5,0.8-2.1,1c-0.7,0.2-1.2-0.4-1-0.9s0.9-1,1.5-1.2
	C57.4,242.7,57.9,243.4,58.7,244z"/>
<path id="XMLID_103_" class="st0" d="M160.2,217.1c-0.9,0.5-1.3,0.9-1.7,0.8c-0.4-0.1-1-0.6-1.1-1c0-0.4,0.6-1.2,0.8-1.1
	C158.8,216,159.3,216.5,160.2,217.1z"/>
<path id="XMLID_102_" class="st0" d="M188.2,217.5c-0.8,0.4-1.3,0.7-1.7,0.8c-0.2,0-0.8-0.6-0.7-0.8c0.2-0.4,0.6-1,0.9-1.1
	C187.1,216.3,187.5,216.9,188.2,217.5z"/>
<path id="XMLID_101_" class="st0" d="M268.9,217.5c-0.2,0.9-1.1,1.3-1.8,0.9c-0.2-0.1-0.4-0.4-0.4-0.7c0-0.8,0.8-1.3,1.5-1
	C268.5,216.9,268.7,217.3,268.9,217.5z"/>
<path id="XMLID_100_" class="st0" d="M60,248.3c-1.1,0-1.9,0-2.9,0C58.1,246.4,58.5,246.3,60,248.3z"/>
<path id="XMLID_99_" class="st0" d="M163.4,219.7c-0.6,0.5-0.9,0.9-1.2,0.9c-0.8,0.1-1.3-0.4-1.4-1.1c0-0.3,0.5-0.8,0.7-0.7
	C162.1,218.9,162.6,219.2,163.4,219.7z"/>
<path id="XMLID_98_" class="st0" d="M149.1,157.7c-0.8,0.5-1.1,1-1.6,1.1c-0.7,0.2-1-0.4-0.9-1c0-0.3,0.5-0.8,0.8-0.8
	C147.8,157,148.3,157.3,149.1,157.7z"/>
<path id="XMLID_97_" class="st0" d="M288.7,164.5c0.2,0.2,0.3,0.4,0.5,0.6c-0.2,1.4-1.1,1.5-2.3,1.2h0.1
	C286.5,164.8,286.6,164.7,288.7,164.5z"/>
<path id="XMLID_96_" class="st0" d="M303.3,169c-0.5,0.3-0.7,0.6-0.9,0.6c-0.9,0.1-1.7-0.6-1.5-1.5c0-0.3,0.8-0.8,0.8-0.7
	C302.2,167.8,302.7,168.4,303.3,169z"/>
<path id="XMLID_95_" class="st0" d="M282.3,170.4c-0.8,0.4-1.3,0.8-1.8,0.9c-0.8,0.1-0.9-0.6-0.9-1.2c0-0.7,0.5-1.1,1.1-0.9
	C281.2,169.4,281.6,169.8,282.3,170.4z"/>
<path id="XMLID_94_" class="st0" d="M216.7,129.4c-0.2-0.7-0.4-1.4,0.5-1.7c0.7-0.2,1.3,0.1,1.6,0.9c0.1,0.4,0.1,0.8,0.1,1.2
	l0.1-0.1c-0.8-0.2-1.7,0.6-2.3-0.4C216.6,129.3,216.7,129.4,216.7,129.4z"/>
<path id="XMLID_93_" class="st0" d="M255.6,219.4c-1.9,0-2.5-0.7-2.7-2C254.3,217.3,254.3,217.3,255.6,219.4z"/>
<path id="XMLID_92_" class="st0" d="M74.6,235.9c0,0.1,0,0.3-0.1,0.4c-0.6,0.7-1.6,0.9-2.2,0.4c-0.1-0.1-0.2-0.7-0.1-0.7
	c0.6-0.3,1.3-0.5,1.9-0.6C74.2,235.3,74.4,235.6,74.6,235.9z"/>
<path id="XMLID_91_" class="st0" d="M299.3,175.2c-0.9,0.4-1.4,0.6-2,0.8c-0.1-0.4-0.5-0.9-0.3-1.1c0.3-0.4,0.8-0.7,1.3-0.8
	C298.4,174.1,298.7,174.6,299.3,175.2z"/>
<path id="XMLID_90_" class="st0" d="M141.6,178.9c1-0.8,1.8-0.7,2.5,0.2c0.1,0.2-0.1,0.9-0.3,0.9C142.7,180.3,141.9,180,141.6,178.9
	z"/>
<path id="XMLID_89_" class="st0" d="M142.5,172.4c-0.4,0.5-0.7,1-0.9,1.1c-0.3,0-0.8-0.3-0.9-0.6c-0.1-0.3,0.2-0.7,0.3-1.1
	C141.4,172,141.8,172.2,142.5,172.4z"/>
<path id="XMLID_88_" class="st0" d="M296.9,168.3c-0.4,0.5-0.8,0.9-1.1,1.2c-0.3-0.3-0.8-0.6-0.8-0.8c0.1-0.5,0.5-0.9,0.8-1.4
	C296.1,167.6,296.4,167.8,296.9,168.3z"/>
<path id="XMLID_87_" class="st0" d="M217.2,167.1c0.5,0.4,1,0.8,1.4,1.1c-0.3,0.3-0.6,0.9-0.8,0.9c-0.5-0.1-1-0.5-1.4-0.8
	C216.6,168,216.8,167.6,217.2,167.1z"/>
<path id="XMLID_86_" class="st0" d="M221.4,186.5c-1.8,0.7-2.6,1.1-3.8,1.6C218.7,186.1,218.7,186.1,221.4,186.5z"/>
<path id="XMLID_85_" class="st0" d="M143.6,161.4c0.4,0.5,0.7,0.9,0.9,1.3c0,0.1-0.7,0.7-0.8,0.6c-0.4-0.2-0.7-0.6-1.1-1
	C142.9,162.1,143.1,161.8,143.6,161.4z"/>
<path id="XMLID_84_" class="st0" d="M211.5,162c-0.7,0.7-1,1.1-1.4,1.3c-0.5,0.2-1.1,0.1-1.3-0.6c-0.2-0.7,0.2-1.1,0.8-1.2
	C210.1,161.4,210.5,161.7,211.5,162z"/>
<path id="XMLID_83_" class="st0" d="M204.8,155.4c-0.1,0.3-0.1,0.6-0.3,0.7c-0.6,0.5-1.2,0.7-1.8,0.1c-0.1-0.2-0.2-0.6-0.1-0.8
	c0.5-0.6,1.1-0.7,1.8-0.3C204.6,155.2,204.7,155.3,204.8,155.4z"/>
<path id="XMLID_82_" class="st0" d="M134.4,215c-0.6,0.4-1,0.8-1.5,0.9c-0.3,0.1-0.8-0.3-1-0.6c-0.3-0.5,0.5-1.3,1.3-1.2
	C133.5,214.2,133.8,214.6,134.4,215z"/>
<path id="XMLID_81_" class="st0" d="M262.5,212.8c-0.5,0.4-0.9,1-1,0.9c-0.4-0.2-0.8-0.6-1.1-1c0-0.1,0.5-0.8,0.7-0.7
	C261.6,212.1,261.9,212.5,262.5,212.8z"/>
<path id="XMLID_80_" class="st0" d="M274.6,141.2c-0.3,0.1-0.6,0.5-1,0.5c-0.7,0-1.5-0.9-1.2-1.4c0.1-0.2,0.5-0.4,0.7-0.4
	C274,139.9,274.7,140.4,274.6,141.2z"/>
<path id="XMLID_79_" class="st0" d="M141.7,209.5c-0.8,0.3-1.4,0.6-2,0.7c-0.2,0-0.7-0.7-0.7-0.9c0.3-0.7,0.8-1.2,1.6-1
	C141.1,208.5,141.3,209,141.7,209.5z"/>
<path id="XMLID_78_" class="st0" d="M212.3,145.5c-0.5,0.5-0.7,1.1-0.9,1.1c-0.5,0-0.9-0.3-1.4-0.5c0.2-0.3,0.4-0.8,0.6-0.8
	C211.1,145.2,211.6,145.4,212.3,145.5z"/>
<path id="XMLID_77_" class="st0" d="M218.3,246.7c1.3-1.6,1.3-1.6,2.6-0.2C219.9,246.6,219.1,246.7,218.3,246.7z"/>
<path id="XMLID_76_" class="st0" d="M154.1,228.8c-0.4-0.5-0.8-0.8-1-1.2c0-0.1,0.6-0.7,0.7-0.7c0.4,0.2,0.8,0.6,1.1,0.9
	C154.7,228.1,154.5,228.3,154.1,228.8z"/>
<path id="XMLID_75_" class="st0" d="M266.3,223.7c-0.8,0.1-1.2,0.2-1.7,0.1c-0.2,0-0.4-0.4-0.4-0.6c-0.1-0.5,0.7-1,1.1-0.7
	C265.6,222.7,265.8,223.1,266.3,223.7z"/>
<path id="XMLID_74_" class="st0" d="M261,221.8c0.5-0.5,0.8-0.9,1-0.9c0.3,0.1,0.8,0.4,0.9,0.8c0.1,0.3-0.2,0.7-0.4,1.1
	C262,222.4,261.6,222.1,261,221.8z"/>
<path id="XMLID_73_" class="st0" d="M147.4,221.4c-0.5-0.5-0.8-0.9-1.1-1.3c0.3-0.2,0.5-0.6,0.8-0.6c0.6-0.1,1.1,0.1,1.1,0.8
	C148.1,220.6,147.8,220.9,147.4,221.4z"/>
<path id="XMLID_72_" class="st0" d="M151,217.1c0.3,0.8,0.7,1.2,0.7,1.7c0,0.2-0.5,0.7-0.8,0.7c-0.7,0-1-0.6-0.8-1.2
	C150.2,218,150.5,217.8,151,217.1z"/>
<path id="XMLID_71_" class="st0" d="M127,219c-0.4-0.4-0.9-0.6-0.9-0.9c0-0.3,0.5-0.8,0.7-0.8c0.3,0,0.7,0.4,0.8,0.7
	C127.7,218.2,127.2,218.6,127,219z"/>
<path id="XMLID_70_" class="st0" d="M167.4,217.3c-0.6,0.3-1,0.7-1.2,0.5c-0.4-0.2-0.7-0.7-1-1.1c0.3-0.2,0.7-0.7,0.9-0.6
	C166.5,216.4,166.9,216.8,167.4,217.3z"/>
<path id="XMLID_69_" class="st0" d="M207.4,246.9c0.9-0.4,1.7-0.7,2.6-1.1c0.8,0.8,0.3,1.3-0.3,1.6
	C208.7,247.9,208,247.5,207.4,246.9L207.4,246.9z"/>
<path id="XMLID_68_" class="st0" d="M232.5,240.8c-0.6,0.5-0.9,1-1.1,1c-0.5-0.1-0.9-0.5-1.4-0.7c0.3-0.3,0.5-0.8,0.8-0.8
	C231.2,240.2,231.7,240.5,232.5,240.8z"/>
<path id="XMLID_67_" class="st0" d="M236,240c-0.8,0.2-1.2,0.5-1.7,0.5c-0.2,0-0.5-0.7-0.4-0.9c0.1-0.3,0.6-0.6,1-0.6
	C235.1,239,235.4,239.5,236,240z"/>
<path id="XMLID_66_" class="st0" d="M237.8,235.6c-0.6,0.5-0.9,1-1.1,1c-0.5-0.1-0.9-0.5-1.4-0.7c0.3-0.3,0.5-0.8,0.8-0.8
	C236.5,235,237,235.3,237.8,235.6z"/>
<path id="XMLID_65_" class="st0" d="M225.5,233.4c-0.6-0.3-1.3-0.7-1-1.6c0.3-0.6,0.8-0.7,1.5-0.2c-0.2,0.6-0.4,1.2-0.7,1.8
	C225.4,233.5,225.5,233.4,225.5,233.4z"/>
<path id="XMLID_64_" class="st0" d="M218.2,163.5c-0.3-0.6-0.6-1-0.5-1.3c0-0.3,0.5-0.7,0.7-0.7c0.3,0,0.7,0.4,0.8,0.7
	C219.3,162.3,218.9,162.6,218.2,163.5z"/>
<path id="XMLID_63_" class="st0" d="M151.3,160.2c0.4,0.3,0.9,0.4,1.1,0.7c0.2,0.3,0.2,0.8,0.2,1.2c0,0.1-0.6,0.4-0.7,0.3
	c-0.4-0.3-0.9-0.6-1.1-1C150.8,161.1,151.2,160.6,151.3,160.2z"/>
<path id="XMLID_62_" class="st0" d="M209.8,155.1c-0.5,0.5-0.8,1-1.2,1.2c-0.1,0.1-0.8-0.5-0.8-0.5c0.2-0.5,0.4-0.9,0.8-1.2
	C208.7,154.5,209.2,154.8,209.8,155.1z"/>
<path id="XMLID_61_" class="st0" d="M220.1,150.9c-1.2-0.3-1.5-0.9-1.2-1.7c0.1-0.2,0.5-0.2,0.7-0.3
	C219.8,149.5,219.9,150.1,220.1,150.9z"/>
<path id="XMLID_60_" class="st0" d="M270.5,147.7c-0.3-0.4-0.6-0.8-0.8-1.2c0.3-0.2,0.7-0.5,1-0.5c0.6,0.1,0.9,0.5,0.7,1.2
	C271.4,147.4,271,147.5,270.5,147.7z"/>
<path id="XMLID_59_" class="st0" d="M271.6,144.3c-0.4-0.4-0.8-0.7-0.9-1c0-0.2,0.4-0.7,0.7-0.7c0.3,0,0.8,0.4,0.8,0.7
	C272.3,143.4,271.9,143.8,271.6,144.3z"/>
<path id="XMLID_58_" class="st0" d="M220.1,142.2c-0.5,0.2-0.8,0.6-1.1,0.6c-0.6-0.1-1.1-0.5-0.7-1.1c0.1-0.2,0.7-0.5,1-0.4
	C219.6,141.3,219.8,141.8,220.1,142.2z"/>
<path id="XMLID_57_" class="st0" d="M262,130.7c0.5,0.6,1,0.9,1,1.1c-0.1,0.5-0.4,0.9-0.6,1.4c-0.3-0.2-0.9-0.4-0.9-0.7
	C261.5,132,261.7,131.6,262,130.7z"/>
<path id="XMLID_56_" class="st0" d="M258,203.2c-0.4,0.5-0.7,0.7-0.9,1c-0.4-0.4-0.8-0.7-1-1.1c-0.1-0.1,0.5-0.8,0.6-0.8
	C257.2,202.5,257.5,202.8,258,203.2z"/>
<path id="XMLID_55_" class="st0" d="M268.1,197.7c0.7-2,0.7-2,2.3-1.3c-0.3,1.5-1.6,0.8-2.4,1.2C268,197.6,268.1,197.7,268.1,197.7z
	"/>
<path id="XMLID_54_" class="st0" d="M257.5,191c-0.6,0.3-0.9,0.7-1.2,0.7c-0.6,0-1.1-0.3-1-1c0.1-0.3,0.6-0.7,0.8-0.7
	C256.5,190.1,256.8,190.5,257.5,191z"/>
<path id="XMLID_53_" class="st0" d="M259.6,190.9c-0.3-0.9-0.6-1.4-0.5-1.8c0-0.3,0.8-0.8,0.9-0.7c0.4,0.3,1,0.7,1,1.1
	C260.9,189.9,260.3,190.2,259.6,190.9z"/>
<path id="XMLID_52_" class="st0" d="M251.2,187.1c-0.7,0.5-1.1,0.9-1.2,0.8c-0.4-0.2-0.8-0.6-1.1-0.9c0.3-0.2,0.6-0.6,0.8-0.6
	C250.1,186.4,250.5,186.7,251.2,187.1z"/>
<path id="XMLID_51_" class="st0" d="M135.3,177.7c0.4,0.5,0.7,0.9,1,1.3c-0.3,0.2-0.7,0.6-1,0.6s-0.8-0.4-0.9-0.8
	C134.4,178.6,134.9,178.3,135.3,177.7z"/>
<path id="XMLID_50_" class="st0" d="M148.2,176.7c-0.8-0.8-1.1-1.1-1.4-1.3c0.3-0.2,0.6-0.7,1-0.7c0.3,0,0.8,0.4,0.9,0.7
	C148.7,175.7,148.4,176.2,148.2,176.7z"/>
<path id="XMLID_49_" class="st0" d="M150.9,165.7c-0.7,0.3-1.1,0.6-1.4,0.6c-0.5-0.1-1-0.4-0.8-1.1c0.1-0.2,0.5-0.4,0.6-0.4
	C149.8,165,150.2,165.3,150.9,165.7z"/>
<path id="XMLID_48_" class="st0" d="M200.3,164.1c-0.2,0.3-0.4,0.7-0.6,1c-0.3-0.2-0.6-0.4-0.9-0.6c0.2-0.3,0.5-0.6,0.8-0.8
	C199.6,163.6,200,163.9,200.3,164.1z"/>
<path id="XMLID_47_" class="st0" d="M218.8,129.8c0.8-0.2,1.6-0.4,2.6-0.6c-0.6,2-0.6,2-2.4,0.5
	C218.9,129.7,218.8,129.8,218.8,129.8z"/>
<path id="XMLID_46_" class="st0" d="M248,199.1c0.4-0.4,0.6-0.8,0.7-0.8c0.4,0.2,0.8,0.6,1.2,0.9c-0.2,0.2-0.4,0.6-0.5,0.6
	C248.9,199.6,248.5,199.3,248,199.1z"/>
<path id="XMLID_45_" class="st0" d="M265.7,193.3c-0.1,0.4-0.1,0.9-0.3,1.2c-0.2,0.3-0.7,0.4-1.1,0.4c-0.1,0-0.4-0.5-0.4-0.6
	c0.1-0.3,0.4-0.7,0.7-0.8c0.4-0.1,0.8,0,1.2,0C265.8,193.4,265.7,193.3,265.7,193.3z"/>
<path id="XMLID_44_" class="st0" d="M240.2,192.3c-0.3-0.3-0.6-0.4-0.6-0.6c-0.1-0.5,0.7-1.1,1.1-0.9c0.2,0.1,0.4,0.5,0.3,0.7
	C240.8,191.8,240.5,192,240.2,192.3z"/>
<path id="XMLID_43_" class="st0" d="M229.9,245.7c-1.1,0-2,0-3.6,0C227.9,244.6,228.7,244.6,229.9,245.7z"/>
<path id="XMLID_42_" class="st0" d="M222.7,182.2c0.2,0.2,0.4,0.4,0.5,0.6c-0.3,0.2-0.6,0.3-0.9,0.5c-0.1-0.2-0.3-0.5-0.3-0.7
	C222.1,182.4,222.5,182.3,222.7,182.2z"/>
<path id="XMLID_41_" class="st0" d="M53.8,251.4c-0.4,0.1-0.7,0.2-1.1,0.2c-0.1,0-0.3-0.6-0.2-0.6c0.3-0.2,0.7-0.3,1-0.5
	C53.6,250.8,53.7,251,53.8,251.4z"/>
<path id="XMLID_40_" class="st0" d="M306.7,214.3c-0.1,0.4,0,0.9-0.2,1.1c-0.2,0.2-0.8,0.3-1,0.1c-0.5-0.4-0.4-1,0.2-1.3
	C305.9,214.1,306.4,214.3,306.7,214.3C306.8,214.4,306.7,214.3,306.7,214.3z"/>
<path id="XMLID_39_" class="st0" d="M185.3,214.5c-0.5,0.2-0.8,0.5-1.1,0.4s-0.6-0.5-0.7-0.8c-0.1-0.4,0.7-0.9,1.1-0.7
	C184.9,213.6,185,214,185.3,214.5z"/>
<path id="XMLID_38_" class="st0" d="M255.1,212.7c-0.5,0.3-0.9,0.6-1.1,0.5c-0.3-0.1-0.4-0.5-0.7-0.8c0.3-0.2,0.6-0.6,0.8-0.6
	C254.4,212,254.7,212.4,255.1,212.7z"/>
<path id="XMLID_37_" class="st0" d="M248.2,212.2c0.6-0.1,1-0.4,1.3-0.2c0.2,0.1,0.3,0.6,0.3,1c0,0.1-0.5,0.3-0.7,0.2
	C248.8,212.9,248.6,212.6,248.2,212.2z"/>
<path id="XMLID_36_" class="st0" d="M182.8,210.8c-0.5,0.3-0.9,0.6-1.1,0.5c-0.3-0.1-0.4-0.5-0.7-0.8c0.3-0.2,0.6-0.6,0.9-0.5
	C182.2,209.9,182.4,210.4,182.8,210.8z"/>
<path id="XMLID_35_" class="st0" d="M169.2,223.7c-0.2,0.4-0.3,0.8-0.4,0.8c-0.3-0.1-0.7-0.2-1-0.4c0.1-0.2,0.2-0.7,0.3-0.7
	C168.5,223.4,168.8,223.6,169.2,223.7z"/>
<path id="XMLID_34_" class="st0" d="M225.4,233.5c0.3,0.1,0.6,0,0.8,0.2c0.2,0.3,0.3,0.7,0.4,1.1c0,0.1-0.6,0.4-0.6,0.3
	c-0.3-0.2-0.5-0.5-0.6-0.9c-0.1-0.2,0.1-0.5,0.2-0.8C225.5,233.4,225.4,233.5,225.4,233.5z"/>
<path id="XMLID_33_" class="st0" d="M225,161.3c-0.2,0.1-0.5,0.4-0.6,0.4c-0.2-0.2-0.4-0.5-0.6-0.7c0.2-0.1,0.5-0.3,0.7-0.2
	C224.8,160.7,224.9,161,225,161.3z"/>
<path id="XMLID_32_" class="st0" d="M205.6,160.2c-0.2,0.4-0.3,0.8-0.4,0.8c-0.4,0-0.7-0.2-1.1-0.3c0.1-0.2,0.2-0.7,0.3-0.7
	C204.8,160,205.2,160.1,205.6,160.2z"/>
<path id="XMLID_31_" class="st0" d="M213.1,159.4c-0.5,0.6-0.6,1-1,1.1c-0.6,0.3-1-0.1-1.1-0.7c0-0.2,0.2-0.6,0.4-0.6
	C211.9,159.2,212.3,159.3,213.1,159.4z"/>
<path id="XMLID_30_" class="st0" d="M150.5,151.6c0.6-0.5,1.2-0.5,1.7,0.2c0.1,0.1-0.1,0.6-0.3,0.7
	C151,152.9,150.7,152.3,150.5,151.6z"/>
<path id="XMLID_29_" class="st0" d="M215.4,148.9c0.2,0.3,0.4,0.7,0.7,1c-0.2,0.1-0.6,0.4-0.7,0.4c-0.3-0.3-0.5-0.6-0.7-0.9
	C214.8,149.2,215.1,149.1,215.4,148.9z"/>
<path id="XMLID_28_" class="st0" d="M142,166.9c-0.7,0.2-1.1,0.5-1.3,0.4c-0.3-0.1-0.4-0.6-0.6-0.9c0.3-0.1,0.6-0.4,0.8-0.3
	C141.1,166.2,141.4,166.5,142,166.9z"/>
<path id="XMLID_27_" class="st0" d="M218.5,133c0.3,0.6,0.5,0.9,0.6,1.2c-0.3,0.2-0.7,0.4-1.1,0.5c-0.1,0-0.4-0.5-0.4-0.6
	C217.8,133.7,218.1,133.5,218.5,133z"/>
<path id="XMLID_26_" class="st0" d="M155.1,165.1c0.4,0.4,0.7,0.6,1,0.8c-0.3,0.3-0.5,0.6-0.8,0.8c-0.1,0.1-0.6-0.3-0.6-0.4
	C154.6,165.9,154.8,165.6,155.1,165.1z"/>
<path id="XMLID_25_" class="st0" d="M134.7,229.7c0.4,0.2,0.6,0.3,0.8,0.4c-0.2,0.3-0.3,0.6-0.6,0.8c-0.1,0.1-0.4-0.2-0.7-0.3
	C134.5,230.3,134.6,230,134.7,229.7z"/>
<path id="XMLID_24_" class="st0" d="M212.8,247.4c0.2-0.2,0.3-0.3,0.5-0.5c0.2,0.3,0.3,0.6,0.5,0.9c-0.2,0.1-0.5,0.3-0.6,0.2
	C213,247.9,213,247.6,212.8,247.4z"/>
<path id="XMLID_23_" class="st0" d="M69.6,243.7c-0.1,0.3-0.2,0.5-0.3,0.8c-0.2-0.1-0.5-0.2-0.7-0.4c-0.1-0.1,0.2-0.6,0.3-0.6
	C69.1,243.4,69.4,243.6,69.6,243.7z"/>
<path id="XMLID_22_" class="st0" d="M219.6,241c-0.2,0.1-0.5,0.4-0.7,0.4s-0.4-0.3-0.7-0.5c0.2-0.1,0.5-0.4,0.7-0.4
	C219.1,240.6,219.4,240.8,219.6,241z"/>
<path id="XMLID_21_" class="st0" d="M213.4,241.3c0.2-0.3,0.4-0.7,0.4-0.7c0.3,0.1,0.7,0.3,0.9,0.5c0.1,0.1-0.2,0.5-0.3,0.7
	C214.1,241.7,213.8,241.5,213.4,241.3z"/>
<path id="XMLID_20_" class="st0" d="M219.3,237.9c0.1,0.1,0.3,0.3,0.5,0.4c-0.2,0.1-0.4,0.2-0.7,0.2c-0.1,0-0.2-0.1-0.3-0.2
	C219,238.2,219.1,238,219.3,237.9z"/>
<path id="XMLID_19_" class="st0" d="M152,167.4c0.6-0.3,0.8-0.6,1.2-0.7c0.1,0,0.4,0.3,0.4,0.5s-0.2,0.6-0.3,0.6
	C152.9,167.8,152.6,167.6,152,167.4z"/>
<path id="XMLID_18_" class="st0" d="M286.9,166.4c-0.8,0.2-1.6,0.4-2.5,0.6C285.2,165.6,286.2,166.7,286.9,166.4
	C287,166.4,286.9,166.4,286.9,166.4z"/>
<path id="XMLID_17_" class="st0" d="M258.2,180.5c-0.3,0.2-0.7,0.4-0.7,0.4c-0.2-0.2-0.4-0.5-0.5-0.9c0-0.1,0.5-0.4,0.5-0.4
	C257.7,179.9,257.9,180.2,258.2,180.5z"/>
<path id="XMLID_16_" class="st0" d="M126.3,187.8c-0.3,0.1-0.7,0.3-1,0.3c-0.1,0-0.3-0.6-0.3-0.6c0.3-0.2,0.6-0.4,0.9-0.6
	C126,187.2,126.1,187.4,126.3,187.8z"/>
<path id="XMLID_15_" class="st0" d="M261.9,137.9c-0.2-0.1-0.4-0.2-0.5-0.4c0,0,0.1-0.3,0.2-0.3c0.2,0,0.4,0,0.6,0.1
	C262.1,137.4,262,137.7,261.9,137.9z"/>
<path id="XMLID_14_" class="st0" d="M214.9,138.6c-0.2,0.4-0.2,0.8-0.4,0.9c-0.4,0.3-1.2-0.5-1.1-0.9c0.1-0.2,0.4-0.5,0.6-0.4
	C214.3,138.2,214.6,138.5,214.9,138.6z"/>
<path id="XMLID_13_" class="st0" d="M251.9,142.4c-0.2,0.3-0.4,0.4-0.5,0.6c-0.2-0.3-0.4-0.5-0.6-0.8l0.2-0.3
	C251.3,142.1,251.6,142.2,251.9,142.4z"/>
<path id="XMLID_12_" class="st0" d="M223.1,147.5c-0.4,0.4-0.7,0.9-0.8,0.9c-0.3-0.1-0.7-0.4-0.9-0.7c-0.3-0.6,0.3-0.7,0.6-0.7
	C222.3,146.9,222.6,147.2,223.1,147.5z"/>
<path id="XMLID_11_" class="st0" d="M230.1,203.6c-0.2,0.4-0.3,0.6-0.4,0.8c-0.3-0.2-0.6-0.4-0.9-0.6c-0.1-0.1,0.2-0.5,0.3-0.7
	C229.4,203.3,229.7,203.5,230.1,203.6z"/>
<path id="XMLID_10_" class="st0" d="M143,207.1c-0.4,0.1-0.7,0.2-1.1,0.2c-0.1,0-0.2-0.4-0.3-0.6c0.3-0.1,0.6-0.3,1-0.3
	C142.7,206.3,142.8,206.7,143,207.1z"/>
<path id="XMLID_9_" class="st0" d="M260,209.7c-0.2,0.1-0.5,0.4-0.5,0.4c-0.3-0.2-0.5-0.5-0.7-0.8c0.2-0.1,0.5-0.2,0.7-0.2
	C259.7,209.2,259.9,209.5,260,209.7z"/>
<path id="XMLID_8_" class="st0" d="M240.2,203.4c-0.2,0.1-0.6,0.3-0.6,0.3c-0.2-0.2-0.3-0.6-0.5-0.9c0.3,0,0.6-0.2,0.7-0.1
	C240,202.9,240.1,203.2,240.2,203.4z"/>
<path id="XMLID_7_" class="st0" d="M264.8,202.4c-0.2,0.4-0.3,0.6-0.5,0.8c-0.3-0.2-0.6-0.4-0.9-0.6c0.1-0.2,0.3-0.5,0.4-0.5
	C264.2,202.1,264.5,202.3,264.8,202.4z"/>
<path id="XMLID_6_" class="st0" d="M87.6,191.1c-0.2,0.1-0.3,0.4-0.5,0.4s-0.3-0.2-0.5-0.4c0.1-0.1,0.2-0.2,0.3-0.2
	C87.2,190.9,87.4,191,87.6,191.1z"/>
<path id="XMLID_5_" class="st0" d="M225.2,132.8c-0.1,0.1-0.2,0.2-0.3,0.3c-0.1-0.2-0.3-0.5-0.3-0.7c0,0,0.2-0.1,0.4-0.2
	C225,132.4,225.1,132.6,225.2,132.8z"/>
<path id="XMLID_4_" class="st0" d="M217.1,174.6c0.2-0.1,0.3-0.4,0.5-0.4s0.3,0.2,0.5,0.4c-0.1,0.1-0.2,0.3-0.3,0.3
	C217.5,174.8,217.3,174.7,217.1,174.6z"/>
<path id="XMLID_3_" class="st0" d="M301.1,183.1c-0.1,0.2-0.3,0.5-0.4,0.5c-0.2,0-0.5-0.2-0.7-0.4c0.1-0.1,0.2-0.3,0.3-0.3
	C300.6,183,300.9,183.1,301.1,183.1z"/>
<path id="XMLID_2_" class="st0" d="M228.2,232.1c0.2,0.1,0.5,0.3,0.5,0.4c0,0.2-0.2,0.4-0.4,0.7c-0.1-0.1-0.3-0.2-0.3-0.3
	C228,232.6,228.1,232.4,228.2,232.1z"/>
<path id="XMLID_1_" class="st0" d="M60.3,241.3c0.2,0.1,0.3,0.2,0.5,0.3c-0.1,0.2-0.2,0.4-0.4,0.5c0,0-0.3-0.1-0.3-0.2
	C60.1,241.7,60.2,241.5,60.3,241.3z"/>
</svg>
