<?xml version="1.0" encoding="utf-8"?>
<!-- Generator: Adobe Illustrator 19.0.0, SVG Export Plug-In . SVG Version: 6.00 Build 0)  -->
<!DOCTYPE svg PUBLIC "-//W3C//DTD SVG 1.1//EN" "http://www.w3.org/Graphics/SVG/1.1/DTD/svg11.dtd">
<svg version="1.1" id="Layer_1" xmlns="http://www.w3.org/2000/svg" xmlns:xlink="http://www.w3.org/1999/xlink" x="0px" y="0px"
	 viewBox="0 0 360 360" style="enable-background:new 0 0 360 360;" xml:space="preserve">
<style type="text/css">
	.st0{fill:#FFFFFF;}
</style>
<path class="st0" d="M193.2,217.7c-1.9-2.2-3.5-4.6-4.7-7.3c-0.5-1.1-1.5-1.9-2.5-3.2c-0.9,0.8-1.5,1.3-2.2,1.9
	c-3.7,3.5-7.3,7.1-11.2,10.3c-2.4,2-4.5,4.2-6.7,6.4c-3.7,3.7-7.5,7.4-11.4,10.8c-4.4,3.9-7.8,8.5-12,12.5c-2.8,2.6-5.6,5.2-8.5,7.6
	c-2.5,2.1-5.1,4.2-7.7,6.1c-1.9,1.4-4,2.5-6,3.6c-0.3,0.2-1-0.3-1.4-0.6c-0.2-0.2-0.3-0.7-0.1-1c0.9-1.7,2.1-3.2,2.5-5.3
	c0.3-1.3,2-2.5,3.3-3.5c5.1-3.6,9.7-7.7,14.1-12c7.7-7.5,15.2-15.1,22.7-22.8c3.8-3.9,7.4-7.9,11-11.8c-2.9-2.5-5.8-4.9-8.6-7.3
	c-2.2,1.3-2.6,2.6-1.2,3.9c0.6,0.6,1.5,1,2.2,1.6c1.2,1,1.4,2.2,0.5,3.4c-1.1,1.5-2.2,2.9-3.5,4.2c-1,1-2.3,1.4-2.6,3.2
	c-0.1,1-1.7,2.4-2.6,2.5c-3.1,0.1-3.6,2.6-4.6,4.5c-2.7,1.1-4.2-1-6.2-1.4c0.3-2.4,0.3-2.4,1.7-4.1c1.2,0.5,2.4,1.1,4,1.8
	c0-2.3-0.1-4.2,0-6.1c0.2-1.8,0.6-3.5,1.1-5.6c-1-0.7-2.2-1.4-3.3-2.2c-0.7-2.4,2-2.7,2.8-4.1c-0.7-0.9-1.4-1.7-2-2.4
	c1.6-1.8,2.7,0.5,4,0.1c0.1-0.3,0.3-0.8,0.1-0.9c-1.1-1-2.2-1.9-3.3-2.7c-2.1-1.7-3.4-3.7-3.4-6.4c0.9-1.1,1.7-0.6,2.5-0.1
	c1.4,0.8,2.8,1.6,4.3,2.3c0.3,0.1,0.9-0.3,1.6-0.5c-2.5-2.9-4.8-5.6-7.3-8.5c-0.6,0.3-1.3,0.6-1.7,1c-5,4.8-10.2,9.3-16.5,12.3
	c-3.7,1.8-7,4.6-10.4,6.9c-6.1,4.2-12.6,8-19.3,11.2c-0.5,0.2-0.9,0.6-1.4,0.8c-3.8,1.7-4.1,1.6-7.1-2.1c1.9-2,4.2-3.5,6.7-4.4
	c6.9-2.5,13-6.5,19.2-10.3c1.4-0.8,2.7-1.9,3.9-3c3.5-3,7-5.7,11-8.1c3.5-2.1,6.5-5.2,9.7-7.9c1.8-1.5,3.6-3.1,6-3.7
	c2-0.5,2.8-0.2,4,1.7c0.3,0.5,0.4,1.1,0.7,1.4c2.9,2.5,5.8,4.9,8.9,7.5c2-3.2,3.9-6.2,5.8-9.1c-4-7.8-9.1-14.7-14.8-21.1
	c-3.8-4.3-6.7-9-8.7-14.4c-1-0.2-2.2-0.1-3-0.6s-1.2-1.7-2-2.8c-1.1,0.6-1.9,1.2-2.9,1.7c-3.7,1.9-7.4,3.9-11.2,5.6
	c-3.2,1.4-6.2,3.1-8.7,5.5c-4.3,4.1-9.5,6.6-14.6,9.4c-5.1,2.8-10.2,5.5-14.7,9.3c-5.4,4.7-11.8,7.8-18.3,10.7
	c-3.7,1.6-7.3,3.3-11,4.9c-1,0.4-2.1,0.7-3.1,0.9c-0.4,0.1-1.4-0.3-1.4-0.6c-0.1-0.6,0.1-1.5,0.5-1.9c0.9-0.9,2.1-1.5,3.1-2.2
	c1.9-1.4,3.9-2.7,5.8-4.2c7.8-6.3,16.5-11.2,25.3-16.1c3.5-1.9,6.8-4.2,10-6.6c2.9-2.2,5.8-4.3,9.1-6c2.4-1.2,4.6-2.9,7.2-4.5
	c-0.8-1.1-1.2-2.2-2-2.7c-5.8-3.7-9.7-9.3-13.8-14.6c-3.2-4-5.9-8.3-9.1-12.2c-2.8-3-5.3-6.3-6.8-10.3c-0.3-0.8-0.9-1.5-1.5-2.5
	c-2,1.3-3.7,2.5-5.4,3.6c0.1,0.7,0,1.1,0.2,1.3c1.1,1.5,1.3,2.6,0.4,3.1c-1,0.6-1.7,0-2.3-0.8c-0.3-0.4-0.5-0.9-0.7-1.5
	c-5.9,4.1-11.2,7.9-16.7,11.6c-4.8,3.2-9.8,6.3-14.7,9.4c-2.9,1.8-6.1,3.3-8.9,5.2c-4.7,3.1-10,5.2-15.1,7.6c-1.8,0.8-3.7,1.4-6.1,1
	c-0.5-1-1-2.1-1.6-3.3c3.9-3.2,8.1-5.8,12.4-8c7.8-4,15.2-8.6,22.4-13.5c5.6-3.8,11-7.7,16.6-11.5c1.6-1.1,3.4-2.1,5.2-2.9
	c3.7-1.7,7.1-3.7,10.3-6.1c1-0.7,2.2-1.6,3.3-1.6c2.1,0,4.1-2.9,4.8-2.7c2,1.9,3.5,4.1,4.6,6.6c5.6,12,12.9,22.8,21.3,32.9
	c2.9,3.5,6.8,5.9,11.7,7.1c1-0.6,2.2-1.5,3.5-2.1c1.4-0.8,2.9-1.4,4.4-2.1c1.1-0.5,2.4-0.8,3.4-1.5c1.6-1.1,3.3-1.4,5.1-1.7
	c4.2-0.6,5.9-0.2,7.8,4.6c0.4,1,1,1.9,1.6,2.7c2.7,3.6,5.5,7.2,8.1,10.9c5,7,9.8,14,14.9,21.2c0.7-0.5,1.7-0.8,2.1-1.5
	c2.4-3.8,5.2-7.4,7.5-11.3c5.7-9.7,11.9-19.1,18-28.6c2.7-4.3,5.4-8.6,8.4-12.7c2.2-3.1,4-6.5,7-8.9c0.9-0.7,1.7-1.3,2.7-1.8
	c1.2-0.7,2.8,0,2.9,1.4c0.3,3.6,0.6,7.2,0.9,11.1c0.7,0.4,1.8,1.1,2.8,1.7c2,4.1,1.2,9.1,4.3,13.3c0.9-1.4,1.7-2.5,2.4-3.7
	c4.9-9.3,9.8-18.7,14.7-28c0.3-0.5,0.4-1,0.7-1.5c0.7-1.3,1.8-1.7,3.2-1.1c0.7,0.3,1.4,0.4,2.2,0.7c2.2,4.1,4.2,8.3,5,13.1
	c0.7,4.1,1.7,8.2,3,12.2c1.7,5.4,3.5,10.8,5.9,15.8c1.5,3,3.7,5.8,5,9c0.8,2,1.7,4,2.6,5.9c0.4,0.8,1,1.4,1.8,2.5
	c3-4.1,4.5-9,4.5-9.7c1.3-2.4,5.1-1,5,0.3c1.2,2.4,1.8,2.4,2.9,5.5c1.1,0.6,1.7,2.4,2,3.7c0.9,3.2,1.6,6.4,2.2,9.6
	c0.7,3.9,1.1,7.9,3.5,11.3c0.1,0.1,0.2,0.3,0.3,0.5c1.7,6.1,3.4,12.2,5,18.4c0.5,2.1,1.2,4.1,2.2,6c4-0.3,4.4-4.4,7-5.7
	c0.5,0.2,1,0.3,1.1,0.5c2,4.7,5.5,8.5,7,13.5c0.3,0.8,0.8,1.6,1.3,2.4c4.6,7.2,8.9,14.6,13.4,21.9c3.8,6.3,7.3,13,12.5,18.5
	c1.4,1.4,2.9,2.7,4.3,4.1c0.3,0.3,0.4,1.1,0.3,1.5c-0.2,0.4-0.8,0.8-1.2,0.7c-4.3-0.5-7.7-2.1-10.1-6.2c-5.4-9.1-11.3-17.8-17-26.7
	c-1-1.5-1.8-3.2-2.7-4.7c-1.1-1.9-2.2-3.7-3.4-5.7c-1.2,0.6-2.1,1-3.4,1.6c1.4,1.2,2.8,1.9,3.5,3.1c0.8,1.3,1.9,2.1,2.9,3.2
	c1.6,1.6,1.6,3.8,0.9,6c1.1,0.5,2.5,0.8,3.3,1.7c0.8,0.8,1.1,2.2,1.7,3.4c0.5,0.9,0.9,2.1,1.6,2.7c1.4,1.1,1.6,2.1,1.1,3.8
	c-0.2,0.7,0.1,1.9,0.7,2.5c1.7,2,1.8,5.1,4.1,6.8c0.2,0.2-0.1,1.5-0.5,1.8c-0.5,0.3-1.5,0.2-1.9-0.1c-0.7-0.5-0.9-1.5-1.5-2.2
	c-1.5-1.8-2.8-3.9-5.1-4.9c-0.5-0.2-0.9-0.9-1.3-0.9c-4.3,0.2-5.7-3.2-7.8-5.8c-0.7-0.8-1.3-1.7-2.1-2.7c0.4-1.1,0.9-2.3,1.1-3.5
	c0.2-1-0.1-2.1-0.1-3.2c1.5-0.2,2.6-0.4,4.9-0.8c-2.9-0.9-4.7-1.4-6.9-2.1c0.4-0.9,0.8-1.6,1.3-2.7c-1-1.4-2.2-3.1-3.4-4.7
	c0.4-1.4,0.5-2.9,1.3-4c0.7-0.9,2.1-1.2,3.4-1.9c-0.6-2-1.6-3.8-3.2-5.5c-1.5,1.1-3,2.1-3.8,4.1c-0.6,1.4-1.6,2.9-3.8,3.2
	c-0.6-0.6-1.2-1.9-2-2c-3-0.4-3.5-2.8-3.7-4.7c-0.5-4.7-3-8.5-4.6-12.8c-0.3-0.8-0.7-1.7-1.4-2.3c-1.2-0.9-1.3-2.1-1.5-3.4
	c-0.5-2.5-0.9-5-1.6-7.5c-1.6-5.4-2.3-11-2.6-16.6c-0.1-3-1.3-6-2-8.8c-1.9-0.5-2.4,0.8-2.7,1.7c-2,5.5-4.6,10.7-6.2,16.3
	c-2.1,7.5-4.8,14.8-8,22c-2.6,6-4.8,12.2-7.2,18.3c-0.9,2.2-2,4.3-3.1,6.3c-0.4,0.8-1.3,1.3-2.5,0.4c0-1,0-2.2,0-3.7
	c-1.3,1.2-2.3,2.1-3.3,2.9c-1.7-1-1-2.1-0.5-3c1.8-3.8,3.8-7.5,5.7-11.2c0.4-0.8,0.9-1.6,1.1-2.5c0.2-1,0.6-2.3,0.2-3.1
	c-1.5-3.2-1.8-6.6-2.8-9.9c-0.1-0.5-0.6-0.8-1-1.5c-1.5,0.8-2,2.1-2.5,3.4c-2.3,5.9-4.4,11.9-6.7,17.8c-2.5,6.5-6.4,12.2-10.1,18
	c-0.2,0.3-0.4,0.7-0.7,0.8c-0.6,0.3-1.4,0.8-1.9,0.6c-1.2-0.3-1-1.4-0.6-2.2c0.7-1.7,1.5-3.3,2.3-4.9c0.4-0.8,0.9-1.6,1.2-2.4
	c2.1-4.6,4.2-9.3,6.3-13.9c0.8-1.8,1.4-3.7,2.2-5.7c-2.6-2.2-3-5.9-6.3-7.4c-0.3-0.1-0.4-0.6-0.5-0.9c-0.7-2.1-1.5-4.1-2-6.2
	c-1.2-5.7-3.4-11-5.5-16.4c-1.3-3.4-1.8-7-2.6-10.5c-1.9-8-3-16.1-3.7-24.2c-0.3-3.3-0.6-6.5-1-9.8c-0.1-0.9-0.1-2.2-0.6-2.6
	c-3.1-1.9-2.5-5.4-3.7-8c-0.1-0.2-0.2-0.3-0.5-0.8c-0.7,0.6-1.4,1-1.8,1.7c-2.6,4.2-5,8.5-7.6,12.6c-4,6.3-8.2,12.4-12.3,18.6
	c-0.2,0.3-0.5,0.6-0.6,0.9c-5.4,9.9-12.3,18.9-17.5,28.9c-1.9,3.8-4.4,7.1-7.4,10c-0.5,0.5-0.9,1.1-1.3,1.7
	c3.2,6.3,5.5,8.9,11.3,12.4c2.7-1.1,5.5-2.4,8.3-3.5c1-0.4,2.1-0.6,3.1-0.9c2-0.5,3.6,0.4,4.7,2c2.8,4.3,5.4,8.6,8.1,12.9
	c1.2,1.8,2.5,3.6,3.7,5.4c3.9,5.7,7.8,11.4,11.6,17.2c3,4.5,5.9,9.2,8.8,13.8c1.1,1.7,1.9,3.5,2.8,5.3c0.6,1.1,0.7,2.1-0.4,2.9
	c-1.1,0.7-2.2,0.2-2.9-0.6c-1.8-2-3.7-4-5.1-6.3c-2.4-3.7-5-7.1-7.9-10.4c-3.6-4.1-7-8.4-10.3-12.7c-3.3-4.1-6.5-8.3-9.7-12.5
	C193,217.5,193.2,217.7,193.2,217.7z M259.3,141.2c-1.1,1.2-1.7,1.9-2.3,2.5c-1.3,1.2-2.6,2.5-4.2,3.5c-2.4,1.5-4.2,1.2-6.4-0.8
	c-0.9-0.9-1.6-1.9-3.1-1.7c-2.6,0.3-4.1-0.9-4.6-3.6c-0.2-1.1-0.7-2.1-2.3-1.9c-1.1,1.6-2.3,3.2-3.2,4.9s-2.1,3.5-1.8,5.6
	c0.3,2.3,0.3,4.7,0.8,7c1.7,7.3,3.4,14.5,5.3,21.7c1.6,6,3.7,11.7,6,17.5c0.3,0.7,0.3,1.4,1.6,1.3c0.4-0.8,1-1.7,1.4-2.7
	c1.6-4,3.2-8.1,4.9-12.1c0.4-0.9,1.3-1.8,2.1-2.3c0.4-0.3,1.4,0,1.9,0.3c0.4,0.2,0.6,0.9,0.8,1.4c1,3.3,1.8,6.6,2.8,10
	c0.3,1,0.8,1.9,1.3,3c2.5-3.5,6.7-13.6,10.9-26.3C267.3,159.6,263.5,150.8,259.3,141.2z M249.4,144.5c2.7-0.3,3.6-2.3,5.1-3.7
	c3.8-3.6,3.9-3.7,1.6-8.3c-1.6-3.3-2.8-6.7-3.6-10.2c-0.3-1.4-0.6-2.8-0.9-4.3c-0.4-2-1.4-3.6-3.3-5c-3.5,7.4-6.9,14.6-10.2,21.6
	c1.5,2.2,2.8,4.1,4.2,6C246.6,141.1,246.6,141.1,249.4,144.5z M159.9,199.8c0.2-0.3,0.4-0.6,0.6-0.9c-0.5-0.7-1-1.4-1.6-2
	c-0.9-1-2-1.1-2.1-0.3c-0.1,0.6,0.1,1.5,0.5,1.8C158.1,199,159.1,199.4,159.9,199.8z"/>
<path class="st0" d="M193.2,217.7l-0.2-0.2c-0.1,1.4-0.2,2.8-0.4,4.3c0.7,2,3.5,2.8,3.2,5.3c-0.2,1.4,0.2,1.8,1.4,2.3
	c1.1,0.5,1.8,1.8,2.6,2.7c1.2,1.3,2.5,2.5,3.8,3.8c0.5,0.5,1.2,1.2,1.1,1.7c0,2.6,3.3,3.5,3,6.2c0,0.2,0.9,0.5,1.3,0.8
	c0.6,0.4,1.4,0.8,1.5,1.3c0.3,1.6,0.8,2.7,2.4,3.2c0.5,0.2,0.9,1.1,1,1.7c0.5,2,0.4,2,2.6,3.1c0.9,5.4,0.9,5.4,0.1,7.2
	c-2.2-1-4.6-1.3-5.8-4.1c-0.5-1.2-2.1-1.9-3.3-3c-1.7,0.5-3.4,0.9-5,1.4c-1.2-2.3-2.2-4.6-3.5-6.7c-1.2-1.9-3.3-1.9-4.3,0.2
	c-0.8,1.7-1.7,2.7-3.6,2.4c-0.1-0.2-0.3-0.3-0.4-0.5c-0.4-0.6-0.7-1.2-1.1-1.9c1.2-1,2.3-1.8,3.3-2.6s1.9-1.6,3-2.6
	c-0.3-0.3-0.7-0.9-1.2-1.2c-0.9-0.6-1.8-0.1-2.4,0.6c-1.6,1.9-3.9,1.4-6,1.8c-0.2,0-0.7-0.4-0.7-0.7c-0.1-0.3,0.2-0.9,0.3-0.9
	c3.7,0,5.3-3.2,7.8-5.2c-0.5-1.5-1.4-1.7-2.3-0.5c-1,1.3-1.8,2.8-4,2.8c-1.2-0.6-1.3-3.5-4.1-2.3c0.3-2.6,0.6-4.8,0.8-7.3
	c-1.8-1.8-4.6-3.1-4.4-6.8c-1.6,0.6-2.9,1-3.9,1.3c-0.3,2.2,1.4,1.7,2,2.3c0.3,0.4,0.8,0.9,0.7,1.3c-0.1,0.9-0.9,0.9-1.7,0.7
	c-0.4-0.1-0.7-0.1-1.1-0.1l0.1,0.1c0.1-1.9-1.4-1.6-2.6-1.8c-1-0.2-1.4-1.4-0.7-2c0.8-0.7,1.7-1.3,2.4-2.1c0.9-0.9,1.9-1.7,2.3-2.8
	c0.8-2.2,3.1-3.3,3.9-5.6c0.6-1.5,2.4-2.1,4.2-1.6c1.8,0.4,3.5,0.9,4.6,2.6C191.1,217.5,192.1,217.7,193.2,217.7z M184.3,224.2
	c-0.4-0.3-0.8-0.6-1.2-0.9c0,0-0.4,0.2-0.4,0.3c0.2,0.4,0.4,0.8,0.7,1.1C183.5,224.7,184,224.4,184.3,224.2z M188.3,229.2l-0.2,0.4
	l0.3,0.1L188.3,229.2z"/>
<path class="st0" d="M87.7,137.1c-0.7-1.3-0.7-2.8-2.5-3.8c-2.1-1.1-1.9-2.5,0.2-3.9c0.6-0.4,1.2-0.7,2-1.2c-0.9-1-1.7-1.9-2.4-2.7
	l0.2,0.2c-0.1-0.9-0.1-1.7-0.2-2.7c2.9,0.3,2.8,0.4,5.9,3.3c0.8,0.8,2.2,1,3.6,1.7c-0.2,0.9-0.4,1.7-0.5,2.6c0,0.2,0,0.4,0.2,0.5
	c2.8,2.1,4.2,5.5,7.3,7.2c3.2,1.7,4.7,4.7,6.5,7.8c-2.5,2.2-5.2,3.7-8.1,4.6c-1.4,0.5-2.8,0.4-3,2.3c0,0.4-1.1,1.1-1.6,1
	c-1.7-0.2-2.7,0.4-3.6,1.8c-0.4,0.7-1.5,1-2.1,1.6c-2.3,2.6-5,3.4-8.3,2.2c-0.5-0.2-1-0.2-1.5-0.3c-1.4,0.8,0.2,1.6-0.3,2.6
	c-0.9,0.9-1.9,2.1-3.2,3.1c-0.5,0.4-1.6,0.7-1.9,0.5c-0.6-0.5-1-1.5-1-2.3c-0.1-1.2,2.3-1.2,1.8-3c-0.3-0.9,0-2,0-3.3
	c2.1,0,3.8,0,6,0c-1.5-0.9-2.6-1.6-3.6-2.2c1-2.4,3.1-1.2,4.7-2.4c0.4-0.8,0.9-2,1.6-3.5c-1.1-0.1-2.1-0.4-2.7-0.1
	c-0.7,0.3-1.2,1.2-1.6,2c-0.5,0.9-1.5,1.5-2.2,1c-2.2-1.5-4-0.4-5.9,0.5l0,0c0.3-1,0.1-2.1,1.3-2.8c1.1-0.7,1.9-0.4,3-0.1
	c1.9,0.6,3-1.6,5.2-1.8c-0.7-1.7-1.2-2.9-1.7-4.2c2.1-1.1,5.2,0.2,5.8-3.4c-0.2-0.6-0.5-1.3-1-2.5c1.5-0.2,2.8-0.3,4.1-0.5
	c-0.6,0.7-1.1,1.3-1.6,2c1.1,1.2,2,0.8,3-0.1C88.6,138.1,88.2,137.6,87.7,137.1z M89.2,149.9c-0.2-0.3-0.3-0.7-0.5-0.8
	c-0.3-0.1-0.6,0.2-0.9,0.4c0.3,0.4,0.6,0.7,0.9,1.1C88.8,150.3,89,150.1,89.2,149.9z M90.8,133.3c-0.3-0.2-0.5-0.5-0.8-0.7
	c-0.1,0.1-0.2,0.3-0.3,0.4c0.4,0.2,0.7,0.5,1.1,0.7C90.8,133.5,90.8,133.4,90.8,133.3z M93,135.1c0,0.1-0.1,0.3-0.1,0.4
	c0.2,0,0.4,0,0.6,0.1c0-0.1,0-0.3-0.1-0.4C93.3,135.1,93.1,135.1,93,135.1z"/>
<path class="st0" d="M141.7,169.3c-1.5-0.3-3.1-0.6-4.8-1c-0.6-1.6-1.2-3.2-1.8-5.1c2.6-1.6,5.2-3.2,7.7-4.8
	c-0.1-0.2-0.2-0.4-0.2-0.6c-0.7,0.2-1.4,0.4-2.1,0.6c-0.7,0.1-1.4,0.2-2.2,0.2c-0.9,0-1.7-0.1-3-0.1c0.7-2,2.3-2,3.4-2.7
	c1.1-0.7,2.1-1.3,3-1.9c0.4-1.2-0.4-1.3-1.1-1.6c-1.7-0.8-1.9-1.6-0.8-2.7c0.4-0.4,0.8-0.7,1.3-1c0.5-0.2,1-0.3,1.9-0.5
	c1,1.6,2.4,2.8,3.2,4.7c1.4,3.1,2.5,6.4,5.7,8.3c0.3,0.2,0.6,0.5,0.7,0.8c1,3.5,4.2,5.2,6.3,7.9c1.8,2.3,3.4,4.6,4.9,6.8
	c-0.2,2.5-1.7,3.8-3.2,5.1c-1.4,1.2-3.1,0.9-4.2-0.6c-0.4-0.6-0.8-1.2-1-1.9c-1.2-2.8-3.2-4.9-6.3-5c-2-0.1-2.8-1.2-3.6-2.5
	c-1.1,0.3-2.2,0.5-3.6,0.9C141.8,171.3,141.8,170.4,141.7,169.3z M147.1,168.3c-0.1-0.1-0.2-0.2-0.3-0.4c-0.2,0.2-0.4,0.5-0.5,0.7
	c0,0.1,0.3,0.3,0.5,0.4C147,168.8,147.1,168.5,147.1,168.3z"/>
<path id="XMLID_123_" class="st0" d="M233.3,210.9c-1.2,1.3-0.1,3.2-1.3,4.6c-0.9,1-1.4,2.4-2.1,3.7c-3-1.2-3-1.2-5.7-1.1
	c-0.2-0.4-0.6-0.9-0.6-1.4c0.1-3.5-1.4-6.2-3.7-8.7c-1.4-1.4-2.6-3.1-2.6-5.2c0-0.4,0.4-1.1,0.8-1.2c0.4-0.2,1.1,0.1,1.4,0.3
	c0.4,0.3,0.6,0.9,0.9,1.3c0.8,1.5,1.9,2.6,3.5,3c1.5-3.8,1.5-3.9-1.7-5.3c-1.3-0.6-2.7-0.9-4-1.5c-0.4-0.2-1-0.9-0.9-1.2
	c0.1-0.6,0.5-1.4,1-1.7c1.7-1,3.5-1.8,5.4-2.7c-1.3-2.5-3.4-4.5-3.1-7.5c1.2-0.8,2.5-1.7,3.8-2.5c0.3,0.1,0.7,0.1,0.9,0.3
	c1.6,1.3,2.9,2.8,3.1,5c0.1,1,0.6,1.5,1.4,2.1c1.8,1.4,1.8,1.5,0,3.7c1.7,4.1,4.1,7.9,7.4,11c-0.1,2-1.2,3.5-2.2,4.9
	C234.6,211.3,233.9,211.7,233.3,210.9c-0.5,0.1-1,0.1-1.5,0.2c-0.2,0-0.4,0.3-0.6,0.4c0.3,0.1,0.6,0.4,0.8,0.3
	C232.4,211.6,232.8,211.2,233.3,210.9z"/>
<path id="XMLID_122_" class="st0" d="M106.6,172.8c-0.6-1.1-1.1-2-1.5-2.8c1.3-1.7,2.4-0.4,3.7-0.1c0.5-0.3,1.1-0.6,1.6-1.1
	c7.4-7.2,14.8-14.4,22.2-21.6c0.6-0.6,1.2-1.4,2-1.8c0.5-0.2,1.3,0.2,2.2,0.3c-0.4,1-0.5,1.8-0.9,2.3c-2.7,2.9-5.4,5.9-8.2,8.7
	c-6.7,6.7-13.4,13.3-20.1,19.9c-3.6,3.6-7,7.4-10.7,10.9c-2.2,2.1-4.9,3.7-7.3,5.5c-0.2,0.1-0.8,0-0.9-0.2c-0.2-0.4-0.5-1.2-0.3-1.4
	c1.4-1.6,2.9-3.2,4.5-4.6C97.7,182.2,102.5,177.8,106.6,172.8z"/>
<path id="XMLID_121_" class="st0" d="M193.9,191.2c-0.5-0.5-1.2-0.8-1.2-1.1c0.1-1.3,0.4-2.5,0.7-3.7c1.4-5.3,2.8-10.5,4.4-15.7
	c1.1-3.5,2.6-6.8,3.9-10.2c0.6-1.5,1-3.1,1.4-4.7c1.3-4.7,2.4-9.5,3.8-14.2c1.1-3.8,2.5-7.6,3.8-11.3c0.2-0.6,0.7-1.2,1.2-1.7
	c0.2-0.2,0.7-0.3,1-0.2s0.7,0.5,0.7,0.7c-0.1,1.3-0.2,2.6-0.6,3.7c-4.2,10.5-6.5,21.5-10.2,32.1c-1.3,3.8-2.6,7.5-3.8,11.3
	c-0.8,2.6-1.5,5.2-2.2,7.8C196,186.5,195.4,188.9,193.9,191.2z"/>
<path id="XMLID_120_" class="st0" d="M287.2,202.1c2.1-0.7,2.9,0.8,3.8,2.3c1,1.8-0.8,2.5-1.3,3.7c0.3,1.7,3.1,1.9,2.5,3.9
	c-0.6,2.1,2.7,1.9,2,4.2c-0.8-0.2-1.8-0.1-2.3-0.6c-1.5-1.3-2.8-2-4.9-1.2c-1.9,0.7-3.5,0.1-4.6-2.1c0.7-0.7,1.4-1.4,2.1-2.1
	c-1-2.4-3,0.1-4.6-1c0-2.3-0.6-4.7,1.6-7.2c0.8,0.9,1.3,1.5,1.9,2.2c1.3-0.7,2.6-1.5,4-2.2C287.3,201.9,287.2,202.1,287.2,202.1z"/>
<path id="XMLID_119_" class="st0" d="M218.5,170.4c-0.2-0.9-0.3-1.4-0.4-1.9c0-0.5,0-1.1,0.1-2c-0.8,0.4-1.3,0.9-1.9,1
	c-0.6,0.1-1.5,0-1.9-0.3c-0.6-0.5-0.4-1.4,0.2-1.8c0.7-0.5,1.6-0.8,2.3-1.4c0.9-0.7,0.7-1.5-0.8-3.3c0.3-1.1,0.9-2.5,1-3.8
	c0.1-1.4-0.4-2.8-0.7-4.4c0.9-0.1,1.7-0.2,2.7-0.3c0.2,1.2,0.5,2,0.4,2.9c-0.1,2,0.3,3.9,0.9,5.8c0.9,2.9,1.7,6-0.5,8.8
	C219.7,169.7,219.3,169.9,218.5,170.4z"/>
<path id="XMLID_118_" class="st0" d="M135,174.2c2.6-2.6,5.1-1.8,7.7-0.2c-1.3,3.5-1.3,3.4-4.7,3.4c-1.7,0-3.5-0.2-5,1.3
	c-0.3,0.3-1.2,0-2.6,0c1.2-1.3,1.9-2,2.7-2.8c-0.5-0.8-1-1.6-1.5-2.5C133,172,133.5,173.6,135,174.2z"/>
<path id="XMLID_117_" class="st0" d="M287.3,201.9c-1.2,0.3-2,0-2.7-1.1c-0.7-1.4-1.6-2.7-2.8-4.5c0-0.2,0.1-1.1,0.3-2
	c0.2-1.1,0.2-2.3,1.8-2.1c1.1,0.1,1.3,1.1,1.6,1.9c0.2,0.5,0.5,1.2,0.3,1.5c-1.2,2.2,0.3,3.7,1.3,5.3c0.2,0.3,0.1,0.7,0.1,1.1
	C287.2,202.1,287.3,201.9,287.3,201.9z"/>
<path id="XMLID_116_" class="st0" d="M145.8,203.8c-0.8,0.5-1.6,1.4-2.1,1.3c-2.2-0.7-4.2-1.8-6.7-1.6c-0.4,0-0.9-1.2-1.6-2.1
	C139.4,200.8,142.6,201.2,145.8,203.8z"/>
<path id="XMLID_115_" class="st0" d="M150.5,213.2c-0.4,0.7-0.7,1.6-1.2,1.8c-1.6,0.5-3.3,0.8-5.1,1c-0.4,0-1-0.9-1.2-1.4
	c-0.1-0.2,0.6-1.1,1-1c1.8,0.1,3.4-0.3,4.4-1.9c0.1-0.2,1,0,1.4,0.3C150.1,212.1,150.2,212.7,150.5,213.2z"/>
<path id="XMLID_114_" class="st0" d="M223.5,179.7c-1.5,1-3,0.8-4.6,0.2c-0.2-3.1,0.6-4.4,2.5-4.3
	C223,175.6,223.6,176.6,223.5,179.7z"/>
<path id="XMLID_113_" class="st0" d="M211,177.8c1-1.6,1.9-2.8,2.6-4c1.8-0.3,2,0.9,2.1,1.9c0.1,0.8,0.3,2-0.1,2.5
	C214.4,179.5,212.9,179.4,211,177.8z"/>
<path id="XMLID_112_" class="st0" d="M217.4,186.5c-0.7-1.3-1.1-2.2-1.7-3.1c-0.5-0.7-1.1-1.2-2.2-2.4c1.4-0.1,2.1-0.3,2.6-0.1
	c0.8,0.2,1.5,1,2.2,1.1c0.9,0.1,2,0,2,1.1c0,0.7-0.7,1.5-1.2,2.2C218.9,185.7,218.4,185.9,217.4,186.5z"/>
<path id="XMLID_111_" class="st0" d="M134.6,217c-0.5-2.2,0.3-3.5,1.3-5.1c1.5,0.5,3,0.9,5,1.5c-0.7,0.8-1.1,1.3-1.6,1.6
	C137.9,215.7,136.5,216.2,134.6,217z"/>
<path id="XMLID_110_" class="st0" d="M296.5,221.8c-1,0.4-1.5,0.7-1.9,0.6c-2.9-0.9-5.6-2-7.1-5c1.9-0.9,2.9,0.6,4.2,1.5
	C293.1,219.8,294.5,220.5,296.5,221.8z"/>
<path id="XMLID_109_" class="st0" d="M212.5,192.3c0.7-1.2,1.3-2.3,1.9-3.3c0.5,0.3,1,0.4,1.1,0.6c0.6,1.7,1.1,3.3,1.7,5.4
	c-0.8,0-1.5,0.3-1.9,0C214.4,194.4,213.8,193.5,212.5,192.3z"/>
<path id="XMLID_108_" class="st0" d="M179.6,246.7c-1.8-2.9,2.1-3.8,0.8-6.1c3.1,0.6,3.6,1.2,2.5,2.5
	C181.9,244.2,180.8,245.4,179.6,246.7z"/>
<path id="XMLID_107_" class="st0" d="M284.7,185.8c0.1,0.9,0.3,1.8,0.2,2.6c-0.1,0.6-0.7,1.3-1.3,1.4c-0.6,0.2-1.5-0.1-1.9-0.6
	c-0.3-0.4-0.4-1.3-0.2-1.9C282,186,282,186,284.7,185.8z"/>
<path id="XMLID_106_" class="st0" d="M129.7,209.5c-1.1,2.2-1.9,4-4.6,3.2C126.5,208.3,126.6,208.3,129.7,209.5z"/>
<path id="XMLID_105_" class="st0" d="M282.4,177.1c0.3,1.5,0.7,2.9,0.9,4.4c0.1,0.4-0.4,0.9-0.8,1.3c-0.5,0.5-1.6,0.2-1.7-0.5
	c-0.1-0.3-0.2-0.7-0.1-1c0.2-1.4,0.5-2.8,0.8-4.2C281.8,177,282.1,177,282.4,177.1z"/>
<path id="XMLID_104_" class="st0" d="M224.2,221c1.6,0.8,2,1.7,1.5,2.8c-0.7,1.4-1.5,1.8-4,1.8C221.7,223.7,223.3,222.7,224.2,221z"
	/>
<path id="XMLID_103_" class="st0" d="M176.1,229.9c0.5,0.8,1.1,1.5,1.3,2.3c0.4,1.6-1.4,3.2-3,2.7c-0.3-0.1-0.7-0.8-0.7-1.2
	c-0.3-2,1.5-2.7,2.6-3.7C176.2,229.9,176.1,229.9,176.1,229.9z"/>
<path id="XMLID_102_" class="st0" d="M251.6,206.4c-0.5-0.4-1-0.6-1.2-1.1c-0.4-1.1-0.2-2.2,0.7-2.8c0.4-0.3,1.4-0.1,1.8,0.3
	c0.9,0.8,0.6,2,0,2.9C252.7,206,252.1,206.1,251.6,206.4z"/>
<path id="XMLID_101_" class="st0" d="M77.7,128.2c0.7,0.8,1.4,1.3,1.4,1.8c0,0.8-0.2,1.8-0.6,2.5c-0.3,0.5-1,1-1.6,1.2
	s-1-1.1-0.6-2.2C76.6,130.6,77.1,129.6,77.7,128.2z"/>
<path id="XMLID_100_" class="st0" d="M113.8,225.7c-0.2,1.3-2.1,2.5-3.6,2.3c-0.1,0-0.3-0.2-0.4-0.3c-0.1-0.3-0.3-0.8-0.1-0.9
	c0.9-1.1,1.9-2.1,3.5-1.7C113.5,225.1,113.6,225.5,113.8,225.7z"/>
<path id="XMLID_99_" class="st0" d="M246.5,216c1,1.9,0.6,3.5-0.9,4.9c-0.2,0.2-0.8,0.3-1,0.2c-0.4-0.3-0.9-0.9-0.8-1.2
	c0.3-1.7,1.2-3,2.8-3.7L246.5,216z"/>
<path id="XMLID_98_" class="st0" d="M124.8,185c-0.2,1.4-1.2,2-2.5,1.7c-0.8-0.2-1.3-0.8-0.9-1.5s1.1-1.4,1.8-1.5
	C123.8,183.8,124.4,184.7,124.8,185z"/>
<path id="XMLID_97_" class="st0" d="M249.2,213c-0.6-0.9-0.9-1.3-1.4-1.9c1.7-0.9,2.9-2.7,5.5-1C251.7,211.1,250.6,211.9,249.2,213z
	"/>
<path id="XMLID_96_" class="st0" d="M283.3,228.5c1.1-0.3,2.1-0.6,3.1-0.7c0.3,0,1,0.6,1,0.9c0,0.4-0.5,1-0.9,1.1
	C285.3,230.2,284.1,230.1,283.3,228.5z"/>
<path id="XMLID_95_" class="st0" d="M164.3,242.1c2.1-4.3,2.5-4.5,4.2-2C167.4,240.6,166.4,241.1,164.3,242.1z"/>
<path id="XMLID_94_" class="st0" d="M83.5,183.2c-0.2,0.8-0.2,1.7-0.6,2.4c-0.2,0.3-1.2,0.3-1.8,0.3c-0.2,0-0.4-0.5-0.5-0.8
	c-0.2-0.8,0.2-1.4,1-1.5c0.7-0.1,1.4-0.1,2.1-0.1L83.5,183.2z"/>
<path id="XMLID_93_" class="st0" d="M199,157.3c-0.9,0.7-1.5,1.4-2.2,1.6c-0.3,0.1-1.3-0.9-1.2-1.3c0.1-1,0.9-1.5,1.9-1.3
	C198,156.3,198.3,156.7,199,157.3z"/>
<path id="XMLID_92_" class="st0" d="M84.1,116.2c-1.1,0.1-2-0.9-1.7-1.8c0.1-0.4,1-0.9,1.1-0.8c0.5,0.3,1,0.9,1.3,1.5
	C84.9,115.4,84.3,115.9,84.1,116.2z"/>
<path id="XMLID_91_" class="st0" d="M138.2,225.7c-2.2,1.4-3.4,1.8-4.8,0.7C134.3,224.4,135.7,225.1,138.2,225.7z"/>
<path id="XMLID_90_" class="st0" d="M212.4,184.8c1,1.7-0.2,2.7-1.2,3.6c-0.1,0.1-0.7,0.1-0.9-0.1c-0.2-0.2-0.3-0.6-0.3-0.9
	C210.2,186,211.1,185.2,212.4,184.8z"/>
<path id="XMLID_89_" class="st0" d="M107.3,191.3c-0.3-0.7-0.8-1.4-0.7-1.5c0.5-0.7,1.2-1.3,1.9-1.7c0.2-0.1,0.9,0.3,1.3,0.6
	c0.1,0.1,0,0.8-0.2,1C109,190.2,108.2,190.7,107.3,191.3z"/>
<path id="XMLID_88_" class="st0" d="M221.2,263.2c-0.9,0.7-1.4,1.4-1.9,1.4s-1.3-0.6-1.5-1.1c-0.2-0.7,0.3-1.4,1.1-1.3
	C219.6,262.2,220.2,262.7,221.2,263.2z"/>
<path id="XMLID_87_" class="st0" d="M197.4,252.6c0.6,0.8,1.1,1.3,1.2,1.9c0.2,0.8-0.9,1.5-1.9,1.2c-0.8-0.2-1.3-0.8-0.9-1.5
	C196,253.6,196.7,253.2,197.4,252.6z"/>
<path id="XMLID_86_" class="st0" d="M140.2,234.8c-1.4,0.1-2.1,0.3-2.8,0.2c-0.3,0-0.6-0.8-0.5-1.2c0.1-0.9,1.2-1.4,2-1
	C139.3,233.1,139.5,233.7,140.2,234.8z"/>
<path id="XMLID_85_" class="st0" d="M147.2,226.9c0.2,1.4-0.8,1.8-1.5,2.1c-0.3,0.1-0.8-0.4-1.2-0.6c0.5-0.7,1-1.4,1.6-1.9
	C146.1,226.3,146.8,226.8,147.2,226.9z"/>
<path id="XMLID_84_" class="st0" d="M114.5,182.1c0.4,0.7,0.8,1.1,0.8,1.5c-0.1,0.5-0.4,1-0.8,1.3s-1.1,0.4-1.4,0.2s-0.4-1-0.2-1.4
	C113.2,183.1,113.8,182.7,114.5,182.1z"/>
<path id="XMLID_83_" class="st0" d="M60.8,129.3c-1,0.7-1.8,1.2-2.6,1.6c-0.1,0-0.6-0.4-0.6-0.6c-0.2-1.1,0.7-2.3,1.7-2.1
	C59.8,128.2,60.1,128.7,60.8,129.3z"/>
<path id="XMLID_82_" class="st0" d="M124.5,208c-1.1,0.5-1.7,0.9-2.2,0.9c-0.3,0-1-0.8-0.9-0.9c0.3-0.5,0.8-1.3,1.3-1.4
	C123,206.6,123.6,207.3,124.5,208z"/>
<path id="XMLID_81_" class="st0" d="M220,140.1c-1.5,0.5-2.1,0.8-2.7,0.8c-0.3,0-0.9-0.7-0.9-1c0.1-0.4,0.7-1,1-1
	C218,138.9,218.6,139.4,220,140.1z"/>
<path id="XMLID_80_" class="st0" d="M55.1,142c0.7,0.7,1.1,1.1,1.5,1.5c-0.4,0.3-0.7,0.9-1.1,0.9c-0.6,0-1.1-0.5-1.7-0.7
	C54.2,143.3,54.5,142.8,55.1,142z"/>
<path id="XMLID_79_" class="st0" d="M83.7,183.3c0.4-1,0.6-2.1,1.9-2.3c0.4,0,1.1,0.2,1.3,0.6c0.2,0.3-0.1,1-0.4,1.3
	c-0.9,0.9-2,0.4-3,0.2C83.5,183.2,83.7,183.3,83.7,183.3z"/>
<path id="XMLID_78_" class="st0" d="M91.9,178.3c-1.3,0.4-1.9,0.8-2.4,0.7c-0.4,0-1-0.5-1-0.9c-0.2-0.9,0.6-1.3,1.3-1.2
	C90.3,177,90.8,177.6,91.9,178.3z"/>
<path id="XMLID_77_" class="st0" d="M85,125.5c-0.3,0.6-0.4,1.5-0.9,1.8c-1.2,0.6-2,0.3-1.9-1.6c1,0,2,0,3,0
	C85.2,125.7,85,125.5,85,125.5z"/>
<path id="XMLID_76_" class="st0" d="M132.8,238.8c0.2,0.6,0.4,1.1,0.4,1.6c-0.1,0.5-0.4,1.1-0.7,1.2c-0.3,0.1-1.1-0.3-1.2-0.6
	c-0.2-0.3,0-1,0.3-1.4C131.7,239.3,132.2,239.2,132.8,238.8z"/>
<path id="XMLID_75_" class="st0" d="M303.1,235.3c0.2-0.2,0.4-0.7,0.7-0.7c0.6-0.1,1.2,0,1.9,0.1c0,0.4,0.1,1-0.1,1.3
	c-0.7,0.7-1.5,0.6-2.2-0.2C303.2,235.6,303.1,235.5,303.1,235.3z"/>
<path id="XMLID_74_" class="st0" d="M132.6,225c-2.2-0.1-3.3-0.2-4.4-0.2C129.2,222.8,129.2,222.8,132.6,225z"/>
<path id="XMLID_73_" class="st0" d="M309.1,228.5c-1.4,0.7-1.8,1.1-2.3,1.1c-0.6,0-1.2-0.4-1.8-0.6c0.2-0.4,0.3-1.3,0.5-1.3
	C306.3,227.8,307,228.1,309.1,228.5z"/>
<path id="XMLID_72_" class="st0" d="M221.6,173.1c-0.6,0.6-1,1.1-1.4,1.2c-0.8,0.2-1.8-0.6-1.7-1.5c0.1-0.4,0.7-1.1,0.9-1
	C220.1,172.1,220.8,172.6,221.6,173.1z"/>
<path id="XMLID_71_" class="st0" d="M95.7,174.9c-0.6,0.6-0.9,1.1-1.3,1.3c-0.8,0.4-1.5,0-1.7-0.8c-0.1-0.3,0.5-1.1,0.7-1.1
	C94.1,174.2,94.7,174.6,95.7,174.9z"/>
<path id="XMLID_70_" class="st0" d="M99,177.4c-0.6,0.6-1,1.1-1.5,1.4c-0.6,0.3-1.6-0.6-1.3-1.1c0.3-0.5,0.9-1,1.4-1.3
	C97.8,176.2,98.3,176.9,99,177.4z"/>
<path id="XMLID_69_" class="st0" d="M63.7,155c0.4,1.2,0.8,1.8,0.8,2.4c0,0.2-0.8,0.7-1.2,0.6c-0.4-0.1-1.1-0.7-1-1
	C62.4,156.4,63,156,63.7,155z"/>
<path id="XMLID_68_" class="st0" d="M118,158.3c-0.8-0.9-1.2-1.4-1.6-1.8c0.5-0.4,0.9-0.9,1.5-1.1c0.2-0.1,1,0.6,1,0.9
	C118.8,156.7,118.4,157.2,118,158.3z"/>
<path id="XMLID_67_" class="st0" d="M276.5,216.1c-0.5-0.5-0.9-1-1.3-1.5c0.4-0.3,0.7-0.8,1.1-0.8c1.2-0.1,2.1,0.6,1.7,1.3
	C277.6,215.5,277.1,215.7,276.5,216.1z"/>
<path id="XMLID_66_" class="st0" d="M191.3,251.4c-0.3,0.6-0.5,1.3-1,1.7c-0.7,0.6-1.9,0.6-2.3-0.2c-0.5-1,0.5-1.5,1.3-1.7
	c0.5-0.1,1-0.2,1.6-0.2C191,251.1,191.1,251.3,191.3,251.4z"/>
<path id="XMLID_65_" class="st0" d="M213.4,166.8c-1.1,0.5-1.7,1-2.2,0.9s-0.8-0.8-1.3-1.3c0.5-0.3,1-0.9,1.6-1
	C212,165.5,212.4,166.1,213.4,166.8z"/>
<path id="XMLID_64_" class="st0" d="M175.3,240c-0.5,0.2-0.9,0.5-1.4,0.5c-0.6,0-1.5-0.1-1.3-1.1c0.1-0.4,0.7-0.9,1-0.9
	c0.6,0.1,1.1,0.6,1.6,0.9C175.4,239.4,175.3,239.7,175.3,240z"/>
<path id="XMLID_63_" class="st0" d="M61,148.8c-0.7,0.3-1.2,0.6-1.6,0.5c-0.4-0.1-0.6-0.7-0.8-1.1c0.4-0.2,0.9-0.6,1.3-0.6
	C60.2,147.7,60.5,148.3,61,148.8z"/>
<path id="XMLID_62_" class="st0" d="M71.3,152.3c-0.8,0.2-1.7,0.5-2.5,0.6c-0.3,0-0.7-0.2-0.9-0.5c-0.1-0.2,0-0.7,0.2-0.9
	s0.7-0.5,0.9-0.4C69.8,151.4,70.5,151.9,71.3,152.3C71.3,152.2,71.3,152.3,71.3,152.3z"/>
<path id="XMLID_61_" class="st0" d="M71.3,164.4c-0.1,0.1-0.2,0.3-0.3,0.3c-0.7,0-1.3-0.1-2-0.2c0.1-0.5,0.2-0.9,0.3-1.4
	c0.6,0.3,1.3,0.5,1.9,0.8C71.2,164,71.2,164.2,71.3,164.4z"/>
<path id="XMLID_60_" class="st0" d="M128.9,164.4c0.7,0.9,1.4,1.4,1.4,1.8c0,0.5-0.7,1-1.1,1.5c-0.3-0.4-1-0.7-1-1.1
	C128.2,166.1,128.5,165.5,128.9,164.4z"/>
<path id="XMLID_59_" class="st0" d="M192.6,166.7c-1.1,0.5-1.7,1-2.2,0.9c-0.4-0.1-0.8-0.9-1-1.5c0-0.2,0.8-0.8,1.2-0.8
	C191.1,165.5,191.6,166,192.6,166.7z"/>
<path id="XMLID_58_" class="st0" d="M99.7,172.9c1-0.1,2.1-0.3,3.1-0.4c0.2,0,0.6,0.6,0.6,0.7c-0.2,0.4-0.8,1.1-0.9,1
	c-0.9-0.4-1.7-1-2.6-1.5L99.7,172.9z"/>
<path id="XMLID_57_" class="st0" d="M89,174.7c-0.5,0.4-0.9,0.9-1.3,0.9c-0.3,0-0.7-0.6-1-0.9c0.3-0.4,0.6-0.9,1-1
	C88,173.7,88.4,174.3,89,174.7z"/>
<path id="XMLID_56_" class="st0" d="M146.6,198c-0.7,0.3-1.2,0.6-1.8,0.6c-0.2,0-0.7-1-0.6-1.1c0.4-0.5,1-0.8,1.5-1.1
	C145.9,196.8,146.2,197.2,146.6,198z"/>
<path id="XMLID_55_" class="st0" d="M203.3,197.5c-0.3,0.6-0.5,1.1-0.5,1.1c-0.6-0.2-1.1-0.4-1.6-0.6c0.1-0.3,0.3-0.8,0.4-0.8
	C202.1,197.2,202.7,197.4,203.3,197.5z"/>
<path id="XMLID_54_" class="st0" d="M110.2,222.9c-0.7,0.8-1.1,1.5-1.3,1.4c-0.6-0.2-1.1-0.6-1.6-1c0.2-0.3,0.4-0.8,0.7-0.8
	C108.5,222.5,109.1,222.7,110.2,222.9z"/>
<path id="XMLID_53_" class="st0" d="M72,117c0.3,0.3,0.6,0.7,0.9,1.1c-0.3,0.1-0.7,0.4-0.9,0.3c-0.4-0.2-0.7-0.6-1-1
	C71.2,117.3,71.5,117.2,72,117z"/>
<path id="XMLID_52_" class="st0" d="M132.8,230.9c-0.3,1.2-0.9,1.9-2.2,1.1c-0.2-0.1-0.5-0.7-0.4-0.9
	C131,229.9,131.9,230.2,132.8,230.9z"/>
<path id="XMLID_51_" class="st0" d="M122.9,242.2c0.4,0.4,0.8,0.7,1.1,1c-0.3,0.3-0.8,1-0.9,1c-0.6-0.3-1-0.8-1.5-1.2
	C122,242.8,122.4,242.5,122.9,242.2z"/>
<path id="XMLID_50_" class="st0" d="M114.8,246.2c-0.5-0.7-1-1.1-1.1-1.7c-0.1-0.2,0.8-1,0.9-0.9c0.5,0.3,1,0.7,1.3,1.3
	C115.9,245,115.3,245.6,114.8,246.2z"/>
<path id="XMLID_49_" class="st0" d="M127.3,243.4c0.3,0.5,0.8,0.9,0.8,1.2c-0.1,0.3-0.7,0.8-1,0.7c-0.4-0.1-0.7-0.7-1-1
	C126.5,244,126.8,243.7,127.3,243.4z"/>
<path id="XMLID_48_" class="st0" d="M159.8,251.9c0-0.2,0-0.4,0.1-0.5c0.6-0.3,1.2-0.6,1.7-1c0.2,0.4,0.3,0.9,0.5,1.3
	c-0.6,0.2-1.3,0.3-1.9,0.4C160.1,252.2,160,252,159.8,251.9z"/>
<path id="XMLID_47_" class="st0" d="M179.5,249.8c0.5,0.5,0.9,0.8,1.2,1.1c-0.5,0.4-0.9,0.9-1.5,1c-0.2,0.1-0.6-0.6-1-0.9
	C178.6,250.7,179,250.3,179.5,249.8z"/>
<path id="XMLID_46_" class="st0" d="M154,252.2c0.5,0.3,0.9,0.6,1.3,0.8c-0.4,0.4-0.9,0.8-1.3,1.3c-0.3-0.3-0.9-0.6-0.9-1
	C153.1,253,153.6,252.6,154,252.2z"/>
<path id="XMLID_45_" class="st0" d="M51.7,149.3c-0.1-0.4-0.3-0.8-0.2-1.2c0-0.1,0.7-0.4,0.8-0.3c0.2,0.3,0.4,0.7,0.5,1.1
	C52.5,149,52.2,149.1,51.7,149.3z"/>
<path id="XMLID_44_" class="st0" d="M75.4,140.6c0.5,0.2,1,0.3,1.4,0.6c0.1,0.1,0,0.7-0.2,0.9c-0.6,0.6-1.3,0.4-1.8-0.1
	c-0.2-0.2-0.4-0.7-0.3-0.9C74.6,140.8,75.1,140.7,75.4,140.6z"/>
<path id="XMLID_43_" class="st0" d="M302.2,229.5c-0.5-0.4-0.9-0.6-1.3-0.9c0.4-0.4,0.7-1,1.1-1s0.8,0.5,1.2,0.8
	C302.9,228.8,302.6,229.1,302.2,229.5z"/>
<path id="XMLID_42_" class="st0" d="M124.9,218.1c-0.6-1.7-0.9-2.2-0.8-2.5c0.1-0.4,0.7-0.6,1-0.9c0.2,0.4,0.6,0.8,0.6,1.2
	C125.8,216.4,125.4,216.9,124.9,218.1z"/>
<path id="XMLID_41_" class="st0" d="M180.1,186.3c-0.5,0.5-0.8,0.9-1.2,1.1c-0.2,0.1-0.8-0.2-0.8-0.4c0-0.4,0.2-1.1,0.4-1.1
	C178.9,185.8,179.4,186.1,180.1,186.3z"/>
<path id="XMLID_40_" class="st0" d="M99.9,172.8c-0.2-0.1-0.3-0.1-0.5-0.2c-0.6-0.2-1.5-0.3-1.1-1.3c0.1-0.4,0.7-0.5,1.1-0.8
	c0.3,0.5,0.7,1,0.8,1.5c0.1,0.2-0.3,0.6-0.5,0.9C99.7,172.9,99.9,172.8,99.9,172.8z"/>
<path id="XMLID_39_" class="st0" d="M62.3,170.7c-0.7,0.3-1.2,0.7-1.5,0.6c-0.3-0.1-0.5-0.7-0.6-1.1c0-0.1,0.6-0.5,0.8-0.5
	C61.4,169.8,61.7,170.2,62.3,170.7z"/>
<path id="XMLID_38_" class="st0" d="M71.8,132c-0.7,0.5-1,0.7-1.4,1c-0.2-0.4-0.6-0.7-0.7-1.1c0-0.2,0.5-0.7,0.6-0.6
	C70.7,131.3,71.1,131.6,71.8,132z"/>
<path id="XMLID_37_" class="st0" d="M103.2,168.4c-0.3-0.5-0.8-0.9-0.8-1.2c0-0.4,0.5-0.9,0.8-1c0.6-0.2,1.4,0.6,1.1,1.2
	C104.3,167.8,103.8,168,103.2,168.4z"/>
<path id="XMLID_36_" class="st0" d="M113,158.3c0.5,0.5,1,0.8,1.2,1.1c0.1,0.1-0.3,0.8-0.4,0.8c-0.5,0-1-0.2-1.5-0.3
	C112.6,159.4,112.7,158.9,113,158.3z"/>
<path id="XMLID_35_" class="st0" d="M175.5,251.1c-0.7,0.2-1.3,0.5-1.9,0.4c-0.3,0-0.5-0.8-0.8-1.2c0.7-0.1,1.4-0.3,2-0.4
	C175.1,250,175.2,250.5,175.5,251.1z"/>
<path id="XMLID_34_" class="st0" d="M300.3,240.1c-0.6,0.5-1,0.7-1.4,1c-0.2-0.4-0.5-0.7-0.7-1.1c0-0.1,0.4-0.6,0.6-0.6
	C299.3,239.4,299.7,239.7,300.3,240.1z"/>
<path id="XMLID_33_" class="st0" d="M309.3,233.7c-0.7,0.4-1.1,0.9-1.5,0.8c-0.3,0-0.8-0.7-0.7-1c0.1-0.4,0.7-0.8,1-0.8
	C308.4,232.6,308.8,233.2,309.3,233.7z"/>
<path id="XMLID_32_" class="st0" d="M262.6,234.3c-0.7,0.2-1.2,0.6-1.5,0.5s-0.5-0.7-0.5-1.1c0-0.2,0.6-0.6,0.8-0.5
	C261.7,233.4,262.1,233.8,262.6,234.3z"/>
<path id="XMLID_31_" class="st0" d="M268.1,233.1c-0.2-0.4-0.5-0.8-0.7-1.2c0.3-0.2,0.7-0.5,0.8-0.4c0.4,0.2,0.6,0.6,0.9,1
	C268.8,232.7,268.5,232.9,268.1,233.1z"/>
<path id="XMLID_30_" class="st0" d="M121.1,230.4c-1.7,0.8-2.1,1.2-2.4,1.2c-0.3-0.1-0.8-0.7-0.7-0.9c0.1-0.4,0.6-0.7,1-0.8
	C119.4,229.7,119.9,230,121.1,230.4z"/>
<path id="XMLID_29_" class="st0" d="M128.4,164c-0.2-0.4-0.4-0.7-0.4-1.1c0-0.1,0.7-0.4,0.8-0.3c0.3,0.3,0.5,0.7,0.7,1
	C129.2,163.6,128.9,163.7,128.4,164z"/>
<path id="XMLID_28_" class="st0" d="M218.3,148.6c-0.3,0.4-0.5,0.9-0.6,0.9c-0.4-0.1-0.8-0.4-1.1-0.6c0.2-0.3,0.3-0.7,0.5-0.7
	C217.4,148.2,217.8,148.5,218.3,148.6z"/>
<path id="XMLID_27_" class="st0" d="M67.3,143.8c-0.2,0.2-0.5,0.4-0.7,0.6c-0.3-0.4-0.6-0.7-0.9-1.1c0.3-0.1,0.7-0.3,1-0.2
	C66.9,143.2,67.1,143.6,67.3,143.8z"/>
<path id="XMLID_26_" class="st0" d="M78.3,121.4c-0.2,0.2-0.4,0.4-0.6,0.6c-0.2-0.2-0.4-0.4-0.5-0.7c0-0.1,0.2-0.4,0.3-0.4
	C77.8,121,78,121.2,78.3,121.4z"/>
<path id="XMLID_25_" class="st0" d="M199,259.4c-0.3,0.2-0.5,0.3-0.8,0.5c-0.2-0.4-0.4-0.7-0.5-1.1c0.3-0.1,0.6-0.3,0.8-0.2
	C198.8,258.7,198.9,259.1,199,259.4z"/>
<path id="XMLID_24_" class="st0" d="M106.6,197.9c-0.3,0.4-0.5,0.9-0.6,0.9c-0.4-0.1-0.8-0.4-1.2-0.6c0.2-0.3,0.4-0.8,0.5-0.8
	C105.7,197.5,106.2,197.7,106.6,197.9z"/>
<path id="XMLID_23_" class="st0" d="M81.4,179.8c-0.4,0.4-0.6,0.6-0.8,0.8c-0.3-0.3-0.7-0.7-1-1c0.1-0.1,0.3-0.3,0.4-0.3
	C80.5,179.4,80.9,179.6,81.4,179.8z"/>
<path id="XMLID_22_" class="st0" d="M191.5,176.9c-0.2,0.4-0.4,0.6-0.5,0.8c-0.4-0.2-0.8-0.4-1.1-0.8c-0.1-0.1,0.2-0.6,0.4-0.8
	C190.7,176.4,191.1,176.6,191.5,176.9z"/>
<path id="XMLID_21_" class="st0" d="M108.4,164.4c-0.5,0.1-0.9,0.3-1.4,0.2c-0.2,0-0.3-0.5-0.4-0.8c0.4-0.2,0.8-0.4,1.2-0.4
	C108,163.3,108.1,163.9,108.4,164.4z"/>
<path id="XMLID_20_" class="st0" d="M246.7,216.1c0.1-0.5,0-1.1,0.2-1.6c0.1-0.2,0.5-0.3,0.8-0.5c0.2,0.4,0.4,0.8,0.6,1.1
	c-0.6,0.3-1.1,0.5-1.7,0.7C246.5,216,246.7,216.1,246.7,216.1z"/>
<path id="XMLID_19_" class="st0" d="M293.8,225.4c-0.2,0.2-0.4,0.3-0.6,0.5c-0.1-0.3-0.3-0.5-0.4-0.8c0-0.1,0.3-0.3,0.4-0.3
	C293.4,225,293.6,225.2,293.8,225.4z"/>
<path id="XMLID_18_" class="st0" d="M209.3,206.5c0.2,0.2,0.4,0.4,0.5,0.6c-0.3,0.1-0.6,0.2-0.9,0.3c-0.1,0-0.2-0.2-0.3-0.4
	C208.8,206.8,209,206.7,209.3,206.5z"/>
<path id="XMLID_17_" class="st0" d="M98.7,198c-0.2,0.2-0.3,0.5-0.5,0.6c-0.3,0-0.6-0.2-0.8-0.3c0.2-0.2,0.3-0.6,0.5-0.6
	C98.1,197.7,98.4,197.9,98.7,198z"/>
<path id="XMLID_16_" class="st0" d="M122.1,176.4c-0.2,0.2-0.4,0.3-0.7,0.5c-0.1-0.3-0.3-0.6-0.3-0.9c0-0.1,0.4-0.3,0.4-0.3
	C121.7,176,121.9,176.2,122.1,176.4z"/>
<path id="XMLID_15_" class="st0" d="M125.2,171.9c-0.2,0.2-0.3,0.4-0.5,0.5c-0.2-0.2-0.4-0.4-0.6-0.6c0.1-0.1,0.3-0.3,0.3-0.3
	C124.8,171.6,125,171.8,125.2,171.9z"/>
<path id="XMLID_14_" class="st0" d="M65.3,166.4c0.3-0.2,0.6-0.5,0.7-0.5c0.3,0.1,0.6,0.5,0.8,0.7c-0.3,0.1-0.6,0.3-0.9,0.3
	C65.8,166.9,65.6,166.6,65.3,166.4z"/>
<path id="XMLID_13_" class="st0" d="M163.4,242.9c-0.2,0.2-0.4,0.5-0.5,0.5c-0.2-0.1-0.4-0.3-0.6-0.5c0.1-0.1,0.3-0.3,0.3-0.3
	C162.9,242.6,163.2,242.7,163.4,242.9z"/>
<path id="XMLID_12_" class="st0" d="M78.9,124.9c-0.2,0.2-0.4,0.5-0.6,0.5s-0.5-0.3-0.7-0.5c0.1-0.1,0.3-0.4,0.4-0.3
	C78.3,124.6,78.6,124.7,78.9,124.9z"/>
<path id="XMLID_11_" class="st0" d="M85.9,119.6c-0.2,0.2-0.5,0.5-0.7,0.5s-0.5-0.2-0.8-0.4c0.3-0.3,0.5-0.6,0.9-0.7
	C85.3,118.9,85.6,119.4,85.9,119.6z"/>
<path id="XMLID_10_" class="st0" d="M256.6,171.5c1-0.2,2-0.5,3.1-0.8c-2.1-3.4-2.1-3.4-6.1-3.1c-1.1-1.7-1.8-3.6-1.2-5.8
	c2.4,0.3,2.4,0.3,2.7,4c1.8,0.2,3.5,0.2,5.2-1.5c-1.1-1.3-2.3-2.6-3.4-3.9c1.3-2.8,1.5-2.8,0.7-5.5c-0.6-2.1-0.5-4.1-0.7-6.7
	c0.7,0.4,1.6,0.7,1.6,1c-0.1,1.9,0.8,3.4,1.7,5c1.2,2,3.2,4,2.3,6.8c-0.1,0.2,0.4,0.7,0.6,0.7c2.8,0.2,3.3,2.4,4.1,4.4
	c0.2,0.5,0.4,1,0.7,1.5c-1.1,2-1.4,4.5-4.5,4.8c0.6,1,1.1,1.8,1.5,2.5c0.2,1.1-1.1,1.3-1.4,2.1c-0.4,0.8-0.5,1.6-0.7,2.7
	c-1.8-0.3-3.3-0.6-5.1-0.9c0.2-1,0.3-1.6,0.5-2.3s0.4-1.3,0.6-1.8c-0.8-1.3-1.4-2.3-2-3.3L256.6,171.5z"/>
<path id="XMLID_9_" class="st0" d="M247.3,175c1.3-2.2,1.7-3.5,2.6-4.2c0.7-0.5,1.9-0.3,2.9-0.5c0.7,2.2-0.8,2.9-1.8,3.7
	C250.5,174.5,249.5,174.5,247.3,175z"/>
<path id="XMLID_8_" class="st0" d="M248.3,156.5c1.8-0.8,2.7,0.1,3,1.5c0.2,1.2-0.1,2.5-0.2,3.6c-1.1,0.5-2-0.1-1.8-0.6
	C250.1,159.1,248.1,158,248.3,156.5z"/>
<path id="XMLID_7_" class="st0" d="M246.8,167c0.6-0.4,1.1-0.8,1.4-0.8c0.3,0.1,0.7,0.7,0.7,1s-0.6,0.8-0.9,0.7
	C247.6,167.9,247.3,167.4,246.8,167z"/>
<path id="XMLID_6_" class="st0" d="M256.7,171.4c-0.3-0.1-0.7-0.1-1-0.3c-0.2-0.1-0.3-0.4-0.4-0.7c0.3,0,0.7,0,0.9,0.2
	c0.2,0.2,0.3,0.6,0.4,0.9C256.6,171.5,256.7,171.4,256.7,171.4z"/>
<path id="XMLID_5_" class="st0" d="M259.7,183.4c-0.2-0.2-0.3-0.5-0.5-0.7c0.3-0.1,0.6-0.4,0.9-0.3c0.2,0,0.3,0.4,0.5,0.6
	C260.3,183.1,260,183.3,259.7,183.4z"/>
<path id="XMLID_4_" class="st0" d="M253.8,156.7c0.1-0.1,0.1-0.4,0.2-0.4c0.2,0,0.3,0.1,0.5,0.2c-0.1,0.1-0.1,0.3-0.2,0.3
	C254.1,156.9,254,156.8,253.8,156.7z"/>
<path id="XMLID_3_" class="st0" d="M240.9,135.8c0.9-0.5,1.4-1,1.9-1c2.5,0.3,5.1-0.4,7.3,1.3c0.4,0.3,1,0.4,1.5,0.4
	c1.2,0,2.4,0.2,2.3,1.6c-0.2,1.9-2.3,3.2-4,2.7c-0.3-0.1-0.8-0.2-0.9-0.5C247.5,137.4,244.4,137.1,240.9,135.8z"/>
<path id="XMLID_2_" class="st0" d="M250.1,123.6c-0.8,0.5-1.3,1.1-1.5,1c-0.5-0.2-1-0.7-1.5-1.1c0.3-0.3,0.7-1,1-0.9
	C248.7,122.6,249.2,123.1,250.1,123.6z"/>
<path id="XMLID_1_" class="st0" d="M249.1,125.6c0.3,0.6,0.8,1,0.7,1.4c-0.1,0.3-0.6,0.7-1,0.7c-0.3,0-0.8-0.6-0.7-0.9
	C248.2,126.4,248.7,126.1,249.1,125.6z"/>
</svg>
